<?xml version="1.0" standalone="no"?>
<!DOCTYPE svg PUBLIC "-//W3C//DTD SVG 20010904//EN"
 "http://www.w3.org/TR/2001/REC-SVG-20010904/DTD/svg10.dtd">
<svg version="1.0" xmlns="http://www.w3.org/2000/svg"
 width="597" height="450" viewBox="0 0 1280.000000 820.000000"
 preserveAspectRatio="xMidYMid meet">
<metadata>
Created by potrace 1.15, written by Peter Selinger 2001-2017
</metadata>
<g transform="translate(0.000000,820.000000) scale(0.100000,-0.100000)"
fill="#000000" stroke="none">
<path d="M7226 8190 c-131 -40 -142 -244 -16 -307 103 -52 320 -57 423 -10 56
25 72 44 88 100 11 39 -4 98 -32 123 l-21 19 24 5 c18 5 24 13 26 43 l3 37
-165 0 -166 0 0 -90 0 -90 39 0 c39 0 40 1 43 38 3 34 6 37 35 40 17 2 50 -2
73 -8 75 -20 77 -96 3 -126 -29 -12 -67 -15 -174 -12 -121 3 -141 6 -166 24
-50 37 -44 96 12 114 34 11 35 13 35 61 0 53 -5 56 -64 39z"/>
<path d="M7964 8180 c-49 -20 -66 -77 -39 -129 16 -32 33 -41 79 -41 39 0 71
22 92 63 27 54 55 77 90 77 78 0 87 -86 12 -113 -28 -10 -22 -37 7 -37 43 0
75 41 75 95 0 64 -31 95 -96 95 -39 0 -51 -5 -77 -33 -18 -19 -41 -49 -52 -68
-22 -36 -42 -45 -81 -35 -20 5 -24 13 -24 41 0 28 5 38 25 47 14 6 25 19 25
30 0 20 -5 21 -36 8z"/>
<path d="M6567 8170 c-41 -12 -56 -28 -67 -70 -23 -85 20 -150 100 -150 53 0
77 19 120 98 41 77 111 84 118 13 3 -28 -1 -34 -27 -44 -26 -9 -31 -17 -31
-44 0 -28 4 -33 24 -33 39 0 83 44 91 90 15 87 -33 150 -114 150 -58 -1 -80
-18 -123 -95 -24 -42 -41 -61 -56 -63 -50 -7 -70 53 -24 73 17 8 22 18 22 47
0 21 -1 38 -2 37 -2 0 -16 -5 -31 -9z"/>
<path d="M6100 8085 l-225 -62 0 -38 0 -38 235 -63 c129 -35 238 -64 243 -64
11 0 9 48 -3 55 -6 3 -40 14 -78 24 l-67 17 0 69 0 69 78 19 c74 18 77 20 77
48 0 21 -5 29 -17 28 -10 -1 -119 -29 -243 -64z m60 -100 c0 -33 -4 -55 -11
-55 -6 0 -45 9 -87 19 -43 10 -90 22 -107 26 -26 6 -16 11 75 35 58 15 111 29
118 29 8 1 12 -16 12 -54z"/>
<path d="M7920 7930 c0 -19 6 -20 181 -20 166 0 180 1 177 18 -3 15 -21 17
-181 20 -172 2 -177 2 -177 -18z"/>
<path d="M6500 7785 l0 -125 30 0 c29 0 30 2 30 45 l0 45 165 0 165 0 0 35 0
35 -165 0 -165 0 0 45 c0 43 -1 45 -30 45 l-30 0 0 -125z"/>
<path d="M5874 7837 c-2 -7 -3 -74 -2 -148 3 -130 4 -134 26 -137 21 -3 22 0
22 57 l0 61 218 2 217 3 3 28 3 27 -220 0 -221 0 0 60 c0 54 -2 60 -20 60 -11
0 -23 -6 -26 -13z"/>
<path d="M7964 7840 c-47 -19 -67 -77 -42 -123 17 -33 39 -46 78 -47 44 0 75
21 99 68 29 56 53 74 97 70 32 -2 40 -8 48 -31 12 -34 1 -56 -37 -75 -29 -14
-37 -42 -11 -42 20 0 56 19 71 39 7 9 13 35 13 59 0 62 -32 92 -99 92 -53 0
-70 -14 -125 -100 -37 -59 -106 -51 -106 11 0 22 7 32 25 41 14 6 25 19 25 30
0 20 -5 21 -36 8z"/>
<path d="M7130 7715 l0 -45 198 -1 c121 0 189 -4 177 -9 -11 -5 -99 -37 -195
-72 l-175 -63 -3 -58 -3 -57 296 0 296 0 -3 43 -3 42 -207 0 c-113 0 -204 2
-201 5 2 3 95 37 206 76 l202 72 0 53 0 54 -292 3 -293 2 0 -45z"/>
<path d="M1123 7735 c-44 -19 -73 -69 -73 -126 0 -65 30 -105 115 -150 86 -47
107 -71 103 -118 -6 -71 -93 -82 -125 -16 -16 33 -20 35 -65 35 -48 0 -48 0
-42 -27 21 -88 68 -123 162 -123 77 0 124 20 152 65 27 43 27 129 1 169 -19
28 -97 86 -116 86 -6 0 -27 11 -48 25 -30 21 -37 32 -37 60 0 36 21 65 48 65
27 0 60 -28 64 -53 3 -19 10 -22 51 -25 42 -3 47 -1 47 18 0 39 -29 89 -62
110 -39 24 -126 27 -175 5z"/>
<path d="M1445 7738 c-3 -7 -4 -128 -3 -268 l3 -255 134 -3 c74 -1 138 1 141
5 4 4 11 25 14 46 l7 37 -101 0 -100 0 0 75 0 75 90 0 90 0 0 40 0 40 -90 0
-90 0 0 65 0 65 96 0 95 0 -3 43 -3 42 -138 3 c-107 3 -138 0 -142 -10z"/>
<path d="M1905 7737 c-8 -21 -125 -509 -125 -519 0 -5 21 -8 48 -6 l47 3 14
68 14 67 63 0 63 0 10 -37 c5 -21 12 -53 16 -70 6 -32 8 -33 56 -33 33 0 49 4
49 13 -1 6 -29 127 -63 267 l-63 255 -63 2 c-39 1 -64 -3 -66 -10z m86 -193
c26 -119 27 -114 -27 -114 -33 0 -45 4 -41 13 2 6 12 53 23 104 10 51 20 91
22 88 2 -2 12 -43 23 -91z"/>
<path d="M2215 7739 c-3 -8 -4 -129 -3 -269 l3 -255 45 0 45 0 3 113 3 112 39
0 c62 0 80 -25 80 -109 0 -38 4 -82 10 -96 9 -23 15 -26 52 -23 l41 3 -2 89
c-2 94 -19 152 -46 162 -14 6 -11 12 15 39 61 63 47 175 -27 218 -43 25 -250
38 -258 16z m188 -80 c30 -16 37 -28 37 -66 0 -48 -30 -73 -85 -73 l-45 0 0
75 0 75 36 0 c19 0 45 -5 57 -11z"/>
<path d="M2689 7727 c-19 -12 -45 -44 -59 -72 -23 -46 -25 -61 -25 -185 0
-122 2 -139 23 -178 32 -59 72 -82 147 -82 76 0 119 24 145 83 31 68 28 77
-28 77 -45 0 -48 -2 -57 -32 -11 -36 -45 -59 -76 -51 -40 11 -54 59 -54 195 0
113 2 130 21 155 39 53 114 34 114 -29 0 -15 9 -18 51 -18 l51 0 -7 38 c-14
80 -68 122 -156 122 -41 0 -65 -6 -90 -23z"/>
<path d="M3004 7735 c-3 -6 -3 -125 -2 -265 l3 -255 48 -3 47 -3 0 120 0 121
71 0 70 0 -2 -117 -1 -118 46 0 47 0 0 264 0 264 -47 0 -46 0 -1 -104 -2 -104
-65 0 -65 0 -3 102 -3 101 -46 4 c-25 2 -47 -1 -49 -7z"/>
<path d="M3730 7727 c-24 -12 -47 -42 -82 -106 -14 -26 -23 -31 -53 -31 -28 0
-38 5 -47 26 -14 30 -3 54 30 69 28 13 29 45 2 45 -35 0 -70 -44 -70 -88 0
-59 30 -92 84 -92 53 0 70 13 104 75 15 27 39 56 55 65 24 13 30 13 54 0 45
-25 44 -94 -2 -106 -18 -4 -25 -13 -25 -29 0 -50 84 2 94 59 17 89 -65 153
-144 113z"/>
<path d="M8468 7684 c-5 -4 -8 -119 -8 -256 l0 -248 30 0 30 0 0 115 0 115 54
0 c83 0 94 -17 98 -150 3 -74 3 -75 31 -78 l27 -3 0 78 c0 92 -14 149 -40 165
-18 11 -17 14 11 45 51 59 36 172 -28 203 -31 15 -194 26 -205 14z m165 -55
c32 -17 37 -28 37 -81 0 -61 -30 -88 -101 -88 l-49 0 0 90 0 90 46 0 c25 0 55
-5 67 -11z"/>
<path d="M8820 7435 l0 -255 119 0 c121 0 131 3 131 41 0 5 -42 9 -93 9 -52 0
-96 2 -98 4 -2 2 -3 45 -1 95 l3 91 85 0 c83 0 84 0 84 25 0 24 -2 24 -86 27
l-86 3 0 80 0 80 91 3 c89 3 91 3 91 27 l0 25 -120 0 -120 0 0 -255z"/>
<path d="M9134 7677 c-2 -7 -3 -120 -2 -252 l3 -240 118 -3 c69 -1 117 1 117
7 0 5 3 16 6 25 5 14 -6 16 -90 16 l-96 0 0 230 0 230 -25 0 c-14 0 -28 -6
-31 -13z"/>
<path d="M9531 7653 c-5 -21 -33 -130 -61 -242 -28 -112 -54 -209 -57 -217 -4
-10 3 -14 25 -14 29 0 30 2 49 78 l19 77 69 3 70 3 18 -81 c18 -78 19 -80 48
-80 37 0 40 -26 -41 285 l-57 220 -36 3 c-34 3 -36 1 -46 -35z m73 -146 c14
-60 26 -110 26 -113 0 -2 -25 -4 -56 -4 -54 0 -56 1 -50 24 3 14 15 66 27 116
12 50 22 90 24 88 2 -2 15 -52 29 -111z"/>
<path d="M9710 7665 c0 -22 4 -24 58 -27 l57 -3 3 -227 2 -228 25 0 25 0 2
228 3 227 58 3 c53 3 57 5 57 27 l0 25 -145 0 -145 0 0 -25z"/>
<path d="M10060 7435 l0 -256 25 3 26 3 0 250 0 250 -26 3 -25 3 0 -256z"/>
<path d="M10271 7665 c-49 -42 -66 -102 -66 -240 0 -105 3 -126 23 -167 29
-59 64 -82 125 -82 60 0 94 24 127 89 22 44 24 63 25 165 0 186 -42 260 -150
260 -43 0 -60 -5 -84 -25z m137 -48 c44 -47 55 -253 18 -341 -17 -42 -58 -62
-95 -49 -44 15 -64 65 -69 173 -5 109 9 186 39 219 27 29 79 28 107 -2z"/>
<path d="M10597 7684 c-4 -4 -7 -119 -7 -256 l0 -248 31 0 31 0 -4 210 c-2
115 -3 208 -1 207 1 -2 40 -95 86 -208 l83 -204 35 0 34 0 0 250 0 250 -25 0
-25 0 0 -198 c0 -108 -2 -197 -5 -197 -3 0 -41 89 -85 198 -78 191 -82 197
-111 200 -16 2 -33 0 -37 -4z"/>
<path d="M11044 7680 c-28 -11 -61 -54 -69 -90 -14 -66 27 -125 118 -169 59
-29 87 -61 89 -102 2 -67 -26 -99 -88 -99 -30 0 -74 41 -74 70 0 16 -6 20 -30
20 -34 0 -37 -13 -16 -65 37 -88 206 -92 251 -5 22 42 19 116 -5 155 -13 21
-45 46 -90 69 -75 40 -100 66 -100 106 0 88 113 103 142 19 7 -21 16 -29 34
-29 39 0 33 53 -10 96 -30 30 -40 34 -82 33 -27 0 -59 -4 -70 -9z"/>
<path d="M11320 7436 l0 -256 30 0 30 0 0 120 0 120 85 0 85 0 0 -120 0 -120
25 0 25 0 0 255 0 255 -25 0 c-24 0 -24 -1 -27 -107 l-3 -108 -82 -3 -82 -3
-3 108 -3 108 -27 3 -28 3 0 -255z"/>
<path d="M11710 7435 l0 -256 28 3 27 3 0 250 0 250 -27 3 -28 3 0 -256z"/>
<path d="M11870 7435 l0 -255 30 0 30 0 0 110 0 110 50 0 c105 0 152 40 158
133 7 113 -45 155 -195 156 l-73 1 0 -255z m189 181 c25 -22 32 -65 20 -110
-12 -44 -33 -56 -98 -56 l-51 0 0 96 0 96 55 -4 c32 -3 62 -12 74 -22z"/>
<path d="M12271 7677 c-42 -21 -66 -64 -65 -113 1 -58 25 -90 100 -132 85 -48
107 -72 107 -119 0 -55 -17 -81 -57 -89 -48 -8 -89 13 -101 54 -7 26 -14 32
-37 32 -33 0 -36 -16 -12 -66 26 -55 97 -81 171 -63 63 16 86 47 91 122 4 81
-15 112 -99 157 -78 41 -109 71 -109 105 0 90 112 112 142 29 9 -25 18 -34 35
-34 38 0 31 54 -11 96 -29 29 -41 34 -82 34 -27 0 -60 -6 -73 -13z"/>
<path d="M7920 7621 c0 -14 20 -26 83 -51 45 -18 83 -33 85 -35 2 -2 -35 -18
-82 -36 -72 -28 -86 -38 -86 -56 l0 -22 68 28 c37 16 84 36 104 45 23 10 66
16 113 16 68 0 75 2 75 20 0 18 -7 20 -71 20 -61 0 -83 6 -173 45 -57 25 -107
45 -110 45 -3 0 -6 -8 -6 -19z"/>
<path d="M6500 7584 l0 -36 129 3 c71 2 128 3 126 1 -1 -2 -58 -24 -126 -50
l-124 -48 -3 -42 -3 -42 195 0 196 0 0 30 0 29 -137 3 c-76 2 -131 6 -123 10
8 4 69 27 135 51 l120 44 3 42 3 41 -195 0 -196 0 0 -36z"/>
<path d="M6119 7525 c-125 -34 -232 -65 -238 -69 -10 -7 -16 -76 -7 -76 3 0
106 -27 230 -60 124 -33 232 -60 241 -60 9 0 15 9 15 25 0 20 -7 26 -37 34
-21 5 -57 15 -80 21 l-43 11 0 64 c0 37 5 67 11 71 7 4 42 14 78 24 55 13 67
20 69 39 2 13 0 27 -5 31 -4 4 -110 -21 -234 -55z m41 -104 c0 -28 -3 -52 -7
-54 -5 -2 -57 8 -117 23 l-108 27 93 25 c139 38 139 38 139 -21z"/>
<path d="M3543 7466 c-26 -22 -28 -30 -28 -98 l0 -73 178 -3 177 -2 0 25 c0
25 -1 25 -80 25 l-80 0 0 38 c0 49 14 62 70 62 66 0 90 9 90 33 0 19 -4 20
-71 14 -45 -4 -78 -12 -90 -23 -17 -15 -20 -15 -45 5 -36 28 -86 27 -121 -3z
m105 -32 c16 -11 22 -25 22 -55 l0 -39 -60 0 -60 0 0 39 c0 64 47 91 98 55z"/>
<path d="M8240 7396 l0 -66 -160 0 c-153 0 -160 -1 -160 -20 0 -19 7 -20 180
-20 l181 0 -3 82 c-3 70 -6 83 -20 86 -16 3 -18 -5 -18 -62z"/>
<path d="M6830 7246 l0 -76 -55 0 -55 0 0 65 0 65 -30 0 c-29 0 -29 -1 -32
-62 l-3 -63 -47 -3 -48 -3 0 70 0 71 -30 0 -30 0 0 -105 0 -105 195 0 195 0 0
105 c0 84 -3 105 -14 105 -8 0 -21 3 -30 6 -14 5 -16 -5 -16 -70z"/>
<path d="M7130 7250 l0 -50 293 2 292 3 3 48 3 47 -295 0 -296 0 0 -50z"/>
<path d="M3840 7181 l0 -71 -70 0 -70 0 0 59 c0 41 -4 60 -14 64 -22 9 -26 -2
-26 -65 l0 -58 -55 0 -55 0 0 65 c0 58 -2 65 -20 65 -18 0 -20 -7 -20 -85 l0
-85 180 0 181 0 -3 87 c-2 58 -7 88 -15 91 -10 3 -13 -15 -13 -67z"/>
<path d="M8083 7207 c-160 -41 -163 -42 -163 -68 0 -27 2 -28 176 -69 96 -23
178 -40 181 -36 15 15 -11 34 -62 45 l-56 13 3 46 3 46 58 14 c44 11 57 18 57
33 0 25 -6 24 -197 -24z m47 -72 c0 -19 -3 -35 -7 -34 -5 0 -44 8 -88 18 -84
19 -84 19 10 40 77 17 85 15 85 -24z"/>
<path d="M5986 7196 c-83 -31 -116 -93 -116 -215 l0 -61 246 0 247 0 -5 85
c-7 102 -26 140 -89 175 -37 21 -60 25 -144 27 -68 2 -112 -1 -139 -11z m236
-58 c56 -16 88 -58 88 -114 l0 -44 -195 0 -195 0 0 40 c0 92 52 129 184 130
43 0 96 -5 118 -12z"/>
<path d="M7130 7055 l0 -45 198 0 197 -1 -197 -71 -198 -72 0 -58 0 -58 293 2
292 3 0 40 0 40 -210 5 c-133 3 -199 8 -181 13 30 8 319 109 369 129 25 10 27
15 27 64 l0 54 -295 0 -295 0 0 -45z"/>
<path d="M2105 7076 c-74 -32 -115 -125 -115 -261 0 -156 47 -244 143 -265 97
-22 180 19 214 108 14 36 18 75 18 167 0 109 -2 125 -25 170 -19 38 -36 56
-70 73 -50 25 -118 28 -165 8z m133 -61 c36 -26 55 -113 50 -224 -7 -138 -38
-191 -111 -191 -63 0 -98 62 -105 186 -8 161 28 244 105 244 21 0 48 -7 61
-15z"/>
<path d="M1818 6855 c-3 -211 -4 -228 -22 -241 -11 -8 -35 -14 -53 -14 -28 0
-33 -4 -33 -24 0 -29 31 -39 89 -30 46 7 78 33 88 72 5 15 8 124 8 242 l0 215
-37 3 -37 3 -3 -226z"/>
<path d="M2470 6816 l0 -266 98 0 c119 0 166 12 208 54 61 61 54 167 -13 212
l-31 21 29 27 c53 51 47 145 -14 190 -25 18 -45 21 -153 24 l-124 4 0 -266z
m199 203 c36 -13 51 -35 51 -77 0 -52 -27 -73 -103 -79 l-67 -6 0 87 0 86 44
0 c23 0 57 -5 75 -11z m10 -220 c70 -24 82 -138 20 -177 -11 -7 -49 -16 -85
-19 l-64 -6 0 107 0 106 49 0 c26 0 62 -5 80 -11z"/>
<path d="M2977 7063 c-4 -3 -7 -57 -7 -120 l0 -113 30 0 c28 0 30 2 30 40 l0
40 160 0 160 0 0 35 0 35 -160 0 -160 0 0 45 c0 40 -2 45 -23 45 -13 0 -27 -3
-30 -7z"/>
<path d="M3512 7013 c2 -11 34 -31 85 -53 46 -19 83 -37 83 -40 0 -3 -38 -20
-85 -38 -73 -29 -85 -37 -85 -58 l0 -23 43 18 c23 11 73 33 110 50 56 25 82
31 138 31 62 0 69 2 69 20 0 18 -7 20 -69 20 -61 0 -82 6 -169 45 -110 50
-125 53 -120 28z"/>
<path d="M9711 7013 c-47 -23 -71 -67 -71 -128 0 -74 23 -104 119 -154 89 -46
104 -64 99 -119 -6 -75 -103 -79 -130 -6 -11 32 -15 34 -60 34 -57 0 -60 -11
-25 -80 28 -56 73 -80 147 -80 81 1 136 29 160 82 23 51 25 87 6 132 -19 44
-49 72 -121 108 -81 41 -95 55 -95 94 0 47 37 72 77 52 15 -7 30 -24 33 -38 5
-22 12 -25 58 -28 l53 -3 -7 28 c-19 84 -58 116 -147 120 -44 3 -72 -1 -96
-14z"/>
<path d="M10135 7016 c-39 -17 -80 -65 -96 -113 -8 -23 -14 -84 -14 -153 0
-108 2 -119 30 -175 36 -70 75 -95 150 -95 61 0 113 24 141 67 51 77 59 301
13 390 -13 25 -36 55 -51 66 -35 26 -130 33 -173 13z m105 -76 c30 -16 44 -77
44 -190 -1 -124 -17 -175 -60 -186 -64 -16 -94 43 -94 182 0 56 3 115 6 132
12 59 58 87 104 62z"/>
<path d="M6502 6968 l3 -52 130 -26 c143 -29 144 -28 -27 -56 l-108 -18 0 -53
0 -53 195 0 195 0 0 30 0 29 -152 3 -153 3 150 25 150 25 0 35 0 34 -143 27
c-79 15 -145 29 -148 31 -2 3 63 3 146 0 l150 -5 0 37 0 36 -196 0 -195 0 3
-52z"/>
<path d="M8470 6755 l0 -265 50 0 50 0 0 110 0 110 64 0 c74 0 121 25 148 80
37 72 14 164 -51 207 -30 21 -46 23 -147 23 l-114 0 0 -265z m208 171 c7 -7
16 -32 19 -54 7 -55 -27 -92 -87 -92 l-40 0 0 86 0 87 47 -7 c26 -3 54 -12 61
-20z"/>
<path d="M8870 6755 l0 -265 145 0 c131 0 145 2 145 18 0 9 3 27 6 40 6 22 5
22 -95 22 l-101 0 0 80 0 80 90 0 90 0 0 40 0 40 -90 0 -90 0 0 65 0 65 95 0
95 0 0 40 0 40 -145 0 -145 0 0 -265z"/>
<path d="M9230 6756 l0 -266 50 0 49 0 3 113 3 112 44 -2 c66 -3 75 -18 79
-128 l4 -95 49 0 49 0 0 78 c0 90 -12 142 -40 167 -20 18 -20 18 4 40 57 53
55 154 -4 210 -31 30 -33 30 -161 33 l-129 4 0 -266z m215 174 c18 -15 24 -59
13 -91 -10 -30 -59 -53 -100 -47 -21 3 -23 9 -26 67 -4 90 -1 95 55 87 25 -3
52 -11 58 -16z"/>
<path d="M10470 6755 l0 -265 45 0 45 0 2 187 3 187 70 -187 70 -187 58 0 57
0 0 265 0 265 -45 0 -45 0 -2 -177 -3 -178 -69 178 -70 177 -58 0 -58 0 0
-265z"/>
<path d="M11050 6975 l0 -35 119 0 120 0 3 -101 c2 -55 1 -103 -1 -105 -2 -2
-58 -4 -123 -4 l-118 0 0 -35 0 -35 290 0 290 0 0 35 0 35 -140 0 -140 0 0
105 0 105 140 0 140 0 0 35 0 35 -290 0 -290 0 0 -35z"/>
<path d="M7920 6965 c0 -12 25 -15 142 -17 l141 -3 -139 -55 c-128 -51 -139
-57 -142 -82 l-3 -28 180 0 c174 0 181 1 181 20 0 18 -8 20 -146 22 l-146 3
143 56 c118 46 145 60 147 78 3 21 2 21 -177 21 -153 0 -181 -2 -181 -15z"/>
<path d="M2972 6759 l3 -31 125 0 c69 1 121 -1 115 -4 -5 -3 -62 -26 -125 -52
l-115 -47 -3 -37 -3 -38 190 0 191 0 0 30 0 30 -132 0 -133 1 133 51 132 51 0
38 0 39 -191 0 -190 0 3 -31z"/>
<path d="M3595 6776 c-60 -17 -85 -45 -85 -96 0 -82 61 -114 208 -109 105 5
141 23 156 81 12 46 -9 88 -54 110 -49 24 -163 31 -225 14z m204 -47 c20 -7
33 -20 38 -37 13 -55 -32 -82 -140 -82 -87 0 -142 17 -152 49 -8 26 10 60 38
71 32 13 178 12 216 -1z"/>
<path d="M4823 6725 c-45 -19 -73 -69 -73 -128 0 -73 20 -101 111 -154 85 -49
99 -65 99 -111 0 -37 -28 -62 -68 -62 -33 0 -62 29 -62 62 0 15 -9 18 -50 18
-58 0 -61 -9 -30 -78 34 -75 138 -103 228 -62 81 37 106 158 48 235 -14 17
-57 49 -96 69 -78 41 -100 70 -84 113 18 52 90 48 100 -7 6 -29 9 -30 56 -30
l50 0 -7 33 c-19 94 -126 144 -222 102z"/>
<path d="M8083 6697 c-160 -41 -163 -42 -163 -68 0 -27 2 -28 175 -69 97 -23
179 -40 182 -37 15 16 -11 36 -62 47 l-56 12 3 46 3 46 58 14 c44 11 57 18 57
33 0 25 -6 24 -197 -24z m47 -73 c0 -33 -2 -36 -22 -30 -13 3 -49 11 -81 17
-32 7 -56 14 -53 16 6 7 107 31 134 32 19 1 22 -4 22 -35z"/>
<path d="M4020 6464 l0 -265 46 3 46 3 2 110 1 110 44 -1 c58 -1 71 -20 71
-100 0 -34 3 -76 6 -93 6 -29 9 -31 52 -31 l45 0 -5 98 c-5 95 -17 139 -45
155 -11 7 -8 16 17 43 26 30 30 43 30 90 0 113 -44 144 -204 144 l-106 0 0
-266z m203 165 c43 -52 9 -116 -63 -121 l-45 -3 -3 64 c-2 35 0 71 3 79 8 21
85 8 108 -19z"/>
<path d="M4410 6465 l0 -265 134 0 c130 0 134 1 140 23 15 56 14 57 -89 57
l-95 0 0 80 0 80 85 0 85 0 0 40 0 40 -85 0 -85 0 0 65 0 65 90 0 90 0 0 40 0
40 -135 0 -135 0 0 -265z"/>
<path d="M5120 6518 c0 -183 2 -218 18 -247 24 -49 60 -71 124 -78 45 -4 65
-1 101 16 75 36 81 59 85 309 l3 212 -50 0 -51 0 0 -210 c0 -197 -1 -211 -20
-230 -37 -37 -91 -21 -109 31 -7 19 -11 109 -11 220 l0 189 -45 0 -45 0 0
-212z"/>
<path d="M5540 6465 l0 -265 40 0 40 0 1 218 1 217 36 -217 36 -218 42 0 43 0
11 57 c7 31 25 126 40 212 l28 156 1 -212 1 -213 45 0 45 0 0 265 0 265 -69 0
-69 0 -35 -177 c-19 -98 -37 -171 -40 -163 -3 8 -15 78 -27 155 -32 205 -21
185 -101 185 l-69 0 0 -265z"/>
<path d="M6042 6468 l3 -263 138 -3 c126 -2 137 -1 137 15 0 10 3 28 6 41 6
22 5 22 -90 22 l-96 0 0 80 0 80 85 0 85 0 0 40 0 40 -85 0 -85 0 0 65 0 65
90 0 90 0 0 40 0 40 -140 0 -140 0 2 -262z"/>
<path d="M7630 6580 l0 -100 -90 0 -90 0 0 90 0 90 -45 0 -45 0 0 -90 0 -90
-70 0 -70 0 0 95 0 95 -45 0 -45 0 0 -145 0 -145 295 0 295 0 0 144 c0 157 0
156 -61 156 l-29 0 0 -100z"/>
<path d="M6500 6545 l0 -105 195 0 195 0 0 105 0 105 -30 0 -30 0 0 -70 0 -70
-55 0 -55 0 0 65 0 65 -30 0 -30 0 0 -65 0 -65 -50 0 -50 0 0 70 0 70 -30 0
-30 0 0 -105z"/>
<path d="M11145 6557 c-83 -33 -110 -76 -103 -166 9 -124 105 -181 303 -181
217 0 305 62 293 207 -6 66 -29 100 -88 131 -64 32 -80 30 -80 -13 0 -32 3
-35 40 -45 47 -13 74 -48 74 -95 0 -75 -72 -108 -234 -108 -180 -1 -250 30
-250 110 0 51 22 80 70 93 37 10 40 14 40 45 0 39 -12 43 -65 22z"/>
<path d="M3840 6485 l0 -65 -162 -2 c-155 -3 -163 -4 -163 -23 0 -19 8 -20
178 -23 l177 -3 0 90 c0 74 -3 91 -15 91 -12 0 -15 -14 -15 -65z"/>
<path d="M3290 6431 l0 -71 -55 0 -55 0 0 66 0 65 -27 -3 c-27 -3 -28 -6 -31
-65 l-3 -63 -44 0 -45 0 0 65 0 65 -30 0 -30 0 0 -100 0 -100 190 0 191 0 -3
103 -3 102 -27 3 -28 3 0 -70z"/>
<path d="M1440 6246 l0 -166 30 0 30 0 0 64 0 63 42 6 c82 11 118 101 65 163
-20 23 -33 27 -95 32 l-72 5 0 -167z m118 102 c7 -7 12 -24 12 -38 0 -32 -17
-50 -47 -50 -21 0 -23 4 -23 50 0 46 2 50 23 50 13 0 28 -5 35 -12z"/>
<path d="M1670 6245 l0 -165 85 0 c47 0 85 4 85 9 0 5 3 16 6 25 5 14 -3 16
-55 16 l-61 0 0 44 0 45 53 3 c45 3 52 6 55 26 3 21 0 22 -52 22 l-56 0 0 39
0 40 53 3 c48 3 52 5 55 31 l3 27 -85 0 -86 0 0 -165z"/>
<path d="M1888 6404 c-5 -4 -8 -79 -8 -166 l0 -158 30 0 30 0 0 70 c0 66 1 70
23 70 40 0 50 -15 55 -79 4 -60 5 -61 35 -61 l30 0 -7 68 c-4 37 -13 73 -20
81 -12 11 -11 16 5 32 27 27 25 81 -4 115 -20 23 -33 27 -93 31 -38 3 -72 2
-76 -3z m125 -65 c5 -9 7 -28 3 -42 -5 -23 -12 -27 -41 -27 -35 0 -35 0 -35
46 0 45 0 45 31 42 18 -2 36 -10 42 -19z"/>
<path d="M2164 6398 c-25 -12 -44 -48 -44 -84 0 -28 35 -66 91 -99 28 -17 34
-26 34 -55 0 -31 -3 -35 -27 -38 -22 -3 -30 2 -40 22 -8 19 -19 26 -40 26 -31
0 -34 -7 -16 -45 34 -75 165 -69 186 8 19 67 4 92 -88 150 -45 29 -49 70 -8
75 19 2 28 -2 33 -17 4 -15 15 -21 36 -21 32 0 35 7 18 43 -19 42 -86 59 -135
35z"/>
<path d="M2401 6394 c-35 -25 -51 -75 -51 -156 0 -122 47 -182 126 -163 57 15
78 51 82 142 5 90 -9 145 -45 172 -31 25 -80 27 -112 5z m89 -60 c6 -14 10
-58 10 -99 0 -56 -4 -78 -18 -96 -23 -27 -48 -21 -62 16 -16 42 -12 157 6 183
21 30 52 28 64 -4z"/>
<path d="M2610 6246 l0 -166 25 0 25 0 0 118 1 117 43 -115 c41 -111 43 -115
74 -118 l32 -3 0 165 0 166 -25 0 -25 0 -1 -107 0 -108 -42 105 c-40 101 -43
105 -74 108 l-33 3 0 -165z"/>
<path d="M6574 6373 c-12 -2 -32 -15 -45 -29 -21 -22 -24 -37 -27 -115 l-4
-89 196 0 196 0 0 35 0 35 -86 0 -86 0 6 33 c9 45 30 57 103 57 l63 0 0 36 0
36 -80 -4 c-58 -2 -84 -8 -97 -20 -16 -17 -18 -17 -38 1 -22 20 -67 31 -101
24z m86 -92 c5 -11 10 -31 10 -45 0 -25 -3 -26 -55 -26 l-55 0 0 33 c0 42 15
57 57 57 22 0 36 -6 43 -19z"/>
<path d="M3540 6295 c-20 -21 -25 -39 -28 -95 l-4 -70 181 0 c174 0 181 1 181
20 0 18 -7 20 -74 20 l-73 0 -7 51 c-10 71 -39 99 -104 99 -39 0 -53 -5 -72
-25z m124 -31 c9 -9 16 -32 16 -55 l0 -39 -65 0 -65 0 0 39 c0 49 21 71 65 71
18 0 41 -7 49 -16z"/>
<path d="M7628 6210 l3 -100 -90 0 -91 0 0 90 0 90 -45 0 -45 0 0 -90 0 -90
-70 0 -70 0 0 95 0 95 -45 0 -45 0 0 -145 0 -145 295 0 295 0 0 144 c0 158 1
156 -63 156 l-32 0 3 -100z"/>
<path d="M7880 6250 l0 -60 80 0 80 0 2 -317 3 -318 65 0 65 0 3 318 2 317 80
0 80 0 0 60 0 60 -230 0 -230 0 0 -60z"/>
<path d="M8465 6288 c-61 -250 -170 -729 -167 -733 3 -3 32 -5 64 -5 67 0 63
-5 87 108 l16 77 90 0 89 0 7 -35 c4 -19 12 -61 19 -92 l11 -58 70 0 c49 0 69
4 69 13 -1 6 -40 176 -88 377 l-87 365 -87 3 c-84 3 -88 2 -93 -20z m120 -258
c14 -74 29 -143 31 -152 5 -16 -3 -18 -61 -18 -58 0 -66 2 -61 18 6 19 56 278
56 289 0 25 12 -21 35 -137z"/>
<path d="M8890 5930 l0 -380 189 0 c213 0 201 -5 201 82 l0 37 -127 3 -128 3
-2 315 -3 315 -65 3 -65 3 0 -381z"/>
<path d="M9355 6297 c-3 -6 -4 -176 -3 -377 l3 -365 189 -3 c104 -1 193 1 197
5 3 5 9 32 13 61 l7 52 -136 0 -135 0 0 110 0 110 120 0 120 0 0 60 0 60 -120
0 -120 0 0 90 0 90 125 0 125 0 0 60 0 60 -190 0 c-144 0 -192 -3 -195 -13z"/>
<path d="M9846 6301 c-3 -5 -5 -174 -3 -377 l2 -369 60 0 60 0 0 272 c0 149 1
271 2 270 0 -1 43 -117 93 -257 51 -140 96 -263 101 -272 8 -15 23 -18 79 -18
l70 0 0 380 0 380 -60 0 -61 0 3 -255 c2 -139 0 -251 -3 -247 -5 6 -68 170
-186 490 -6 14 -148 17 -157 3z"/>
<path d="M10387 6304 c-4 -4 -7 -31 -7 -61 l0 -53 85 0 85 0 0 -320 0 -320 65
0 65 0 0 320 0 320 85 0 86 0 -3 58 -3 57 -226 3 c-124 1 -228 -1 -232 -4z"/>
<path d="M3290 6186 l0 -66 -160 0 -160 0 0 -35 0 -35 190 0 191 0 -3 98 -3
97 -27 3 -28 3 0 -65z"/>
<path d="M11152 6120 c-18 -4 -42 -16 -53 -26 -41 -37 -49 -68 -49 -189 l0
-115 290 0 290 0 0 35 0 34 -132 3 -133 3 -3 47 c-2 25 4 62 12 81 18 44 57
57 174 57 l82 0 0 38 0 37 -107 -6 c-111 -6 -164 -22 -177 -55 -5 -13 -11 -11
-34 14 -16 17 -46 35 -68 41 -43 12 -45 12 -92 1z m125 -94 c26 -22 28 -30 28
-93 l0 -68 -100 0 -100 0 -3 49 c-6 99 20 136 97 136 38 0 56 -6 78 -24z"/>
<path d="M6500 6025 l0 -35 195 0 195 0 0 35 0 35 -195 0 -195 0 0 -35z"/>
<path d="M3510 6022 c0 -28 2 -29 118 -59 64 -17 131 -34 147 -38 25 -6 14
-11 -75 -31 -188 -42 -190 -43 -190 -75 l0 -29 180 0 c177 0 180 0 180 21 0
21 -2 22 -151 17 -83 -3 -145 -2 -138 2 8 4 76 20 152 36 126 26 137 30 137
50 0 20 -13 26 -142 57 l-143 35 143 1 c135 1 142 2 142 21 0 19 -7 20 -180
20 l-180 0 0 -28z"/>
<path d="M4130 6008 c-54 -36 -71 -97 -67 -233 4 -124 18 -165 67 -190 57 -30
127 -10 155 45 23 45 20 70 -9 70 -19 0 -25 -6 -28 -27 -4 -34 -48 -67 -77
-58 -42 13 -56 60 -56 187 0 103 2 120 21 145 38 51 114 35 114 -24 0 -18 5
-23 26 -23 25 0 26 2 21 37 -13 79 -100 116 -167 71z"/>
<path d="M4438 6019 c-39 -15 -66 -64 -78 -145 -12 -80 -1 -194 24 -242 43
-84 160 -80 203 8 27 53 26 269 -1 324 -28 56 -85 77 -148 55z m100 -67 c21
-32 29 -208 13 -270 -23 -84 -95 -92 -128 -14 -23 53 -23 225 1 270 29 55 82
62 114 14z"/>
<path d="M5935 6021 c-59 -25 -85 -92 -85 -222 0 -159 27 -215 108 -226 50 -7
94 17 116 64 22 47 20 63 -8 63 -19 0 -26 -7 -31 -30 -9 -42 -48 -67 -81 -51
-39 18 -54 67 -54 183 0 131 16 171 72 176 28 2 40 -2 52 -20 9 -12 16 -30 16
-40 0 -13 8 -18 25 -18 29 0 32 15 10 66 -21 50 -87 76 -140 55z"/>
<path d="M4680 5800 l0 -220 25 0 25 0 1 178 c0 115 4 170 9 157 6 -11 37 -91
71 -177 59 -154 61 -158 90 -158 l29 0 0 220 0 220 -26 0 -27 0 5 -175 c3 -97
2 -172 -2 -168 -4 4 -36 83 -71 175 l-64 168 -32 0 -33 0 0 -220z"/>
<path d="M4970 6000 c0 -17 7 -20 50 -20 l50 0 0 -200 0 -200 25 0 25 0 0 200
0 200 50 0 c43 0 50 3 50 20 0 19 -7 20 -125 20 -118 0 -125 -1 -125 -20z"/>
<path d="M5260 5800 l0 -220 25 0 25 0 0 100 0 100 43 0 c69 0 80 -14 85 -114
4 -84 5 -86 30 -86 l25 0 -6 86 c-4 64 -10 93 -25 113 l-20 27 24 27 c27 31
32 89 12 132 -18 40 -57 55 -143 55 l-75 0 0 -220z m160 160 c13 -13 20 -33
20 -59 0 -51 -37 -83 -89 -79 l-36 3 -3 78 -3 77 46 0 c32 0 51 -6 65 -20z"/>
<path d="M5636 6003 c-10 -32 -96 -405 -96 -415 0 -5 10 -8 22 -6 18 2 25 14
38 68 l15 65 56 3 57 3 12 -53 c20 -88 20 -88 47 -88 20 0 24 4 20 19 -2 10
-26 109 -53 219 l-49 202 -32 0 c-22 0 -33 -6 -37 -17z m79 -224 c6 -17 1 -19
-39 -19 -53 0 -53 -1 -30 103 23 108 25 109 45 18 10 -46 21 -92 24 -102z"/>
<path d="M6120 6000 c0 -17 7 -20 45 -20 l45 0 0 -200 0 -200 25 0 25 0 0 200
0 200 50 0 c43 0 50 3 50 20 0 19 -7 20 -120 20 -113 0 -120 -1 -120 -20z"/>
<path d="M3185 5975 c-238 -60 -215 -49 -215 -99 l0 -44 185 -46 c101 -25 187
-46 190 -46 3 0 5 15 5 34 0 31 -3 35 -32 41 -68 13 -68 14 -68 60 0 46 0 47
68 60 29 6 32 10 32 41 0 42 4 42 -165 -1z m5 -99 l0 -34 -67 14 c-37 8 -69
16 -71 18 -2 3 23 9 55 16 32 6 63 13 68 15 6 2 11 4 13 4 1 1 2 -14 2 -33z"/>
<path d="M7226 5920 c-74 -23 -96 -73 -96 -220 l0 -110 293 2 292 3 0 45 0 45
-125 5 -125 5 3 45 c4 65 17 73 119 77 136 6 135 5 131 60 l-3 46 -90 -2
c-120 -2 -150 -9 -178 -37 l-24 -24 -19 21 c-38 43 -110 59 -178 39z m137
-122 c10 -12 17 -37 17 -64 l0 -44 -85 0 -85 0 0 34 c0 49 16 85 42 96 33 14
90 2 111 -22z"/>
<path d="M6500 5875 l0 -35 154 0 c164 0 186 -6 186 -50 0 -44 -22 -50 -186
-50 l-154 0 0 -40 0 -40 143 0 c78 0 159 5 180 11 51 14 72 48 72 122 0 54 -3
61 -33 88 l-32 29 -165 0 -165 0 0 -35z"/>
<path d="M2972 5643 l3 -118 28 -3 c26 -3 27 -2 27 42 l0 46 160 0 160 0 0 35
0 35 -160 0 -160 0 0 40 c0 38 -2 40 -30 40 l-31 0 3 -117z"/>
<path d="M3840 5671 l0 -71 -70 0 -69 0 -3 63 c-2 47 -7 62 -18 62 -11 0 -16
-15 -18 -62 l-3 -63 -54 0 -55 0 0 65 c0 58 -2 65 -20 65 -18 0 -20 -7 -20
-85 l0 -85 180 0 181 0 -3 87 c-2 58 -7 88 -15 91 -10 3 -13 -15 -13 -67z"/>
<path d="M11328 5641 l-278 -76 0 -47 0 -47 53 -14 c88 -26 513 -137 520 -137
4 0 7 15 7 34 l0 34 -90 22 -90 22 0 83 0 84 53 14 c28 8 68 18 87 24 31 8 35
13 38 46 2 26 -1 37 -10 36 -7 -1 -138 -36 -290 -78z m62 -126 c0 -36 -3 -65
-7 -65 -27 0 -264 65 -253 69 36 12 227 59 243 60 14 1 17 -8 17 -64z"/>
<path d="M6870 5601 c-20 -29 -21 -29 -55 -15 -21 8 -68 14 -123 14 -115 0
-170 -25 -190 -85 -26 -77 14 -142 102 -166 55 -15 182 -7 228 15 45 22 73 74
65 124 -5 27 -1 42 20 68 25 33 25 35 8 54 -24 26 -30 25 -55 -9z m-50 -96
c28 -25 22 -57 -14 -74 -33 -15 -143 -20 -199 -8 -49 10 -69 47 -43 76 24 26
44 30 148 27 69 -2 91 -6 108 -21z"/>
<path d="M7200 5498 c-59 -31 -82 -75 -77 -151 2 -37 10 -67 24 -85 49 -67
163 -98 328 -90 156 8 223 47 244 138 11 50 2 106 -22 144 -19 29 -93 66 -131
66 -26 0 -27 -2 -24 -46 3 -43 5 -47 38 -58 19 -6 41 -23 49 -37 13 -24 13
-29 -2 -52 -23 -36 -72 -47 -202 -47 -162 0 -215 20 -215 80 0 33 31 60 67 60
21 0 23 5 23 50 0 48 -1 50 -28 50 -15 0 -48 -10 -72 -22z"/>
<path d="M2585 5379 c-47 -18 -93 -68 -112 -123 -14 -39 -18 -82 -18 -186 0
-125 2 -139 26 -191 22 -46 35 -60 71 -78 90 -43 194 -13 236 69 12 24 22 55
22 67 0 21 -5 23 -49 23 -45 0 -49 -2 -56 -27 -9 -40 -34 -63 -65 -63 -59 0
-85 82 -78 249 5 119 22 167 63 177 34 8 72 -18 80 -56 6 -28 9 -30 56 -30 47
0 49 1 49 28 0 38 -39 103 -76 124 -39 23 -110 31 -149 17z"/>
<path d="M6089 5381 c-73 -23 -109 -76 -109 -158 0 -80 26 -110 162 -187 56
-31 68 -50 68 -104 0 -48 -19 -66 -67 -66 -39 0 -73 31 -73 65 0 16 -8 19 -56
19 l-56 0 7 -32 c12 -55 38 -92 85 -116 37 -20 56 -23 109 -19 103 8 161 67
161 164 0 97 -33 136 -180 214 -55 30 -73 73 -46 114 12 19 25 25 52 25 32 0
37 -4 51 -40 16 -39 17 -40 66 -40 l50 0 -6 37 c-7 41 -30 77 -68 105 -28 20
-112 31 -150 19z"/>
<path d="M2975 5348 c-4 -18 -34 -147 -66 -286 -33 -139 -59 -257 -59 -262 0
-6 22 -10 49 -10 55 0 52 -4 71 93 l11 57 68 0 68 0 14 -72 14 -73 53 -3 c38
-2 52 0 52 10 0 8 -29 139 -65 293 -36 153 -65 280 -65 282 0 1 -31 3 -69 3
l-69 0 -7 -32z m100 -201 l22 -112 -45 -3 c-24 -2 -46 -2 -48 0 -2 2 7 56 19
120 12 64 24 114 26 112 2 -2 14 -55 26 -117z"/>
<path d="M3310 5085 l0 -295 45 0 45 0 2 208 3 207 74 -207 74 -208 58 0 59 0
0 295 0 295 -51 0 -51 0 4 -200 c2 -110 3 -200 3 -200 -1 0 -35 90 -75 200
l-74 200 -58 0 -58 0 0 -295z"/>
<path d="M3770 5086 l0 -296 98 0 c149 1 214 40 247 152 20 67 20 228 0 295
-32 108 -76 135 -232 141 l-113 5 0 -297z m193 193 c42 -19 51 -47 55 -168 6
-171 -20 -231 -100 -231 l-38 0 0 205 0 205 30 0 c16 0 40 -5 53 -11z"/>
<path d="M4220 5085 l0 -295 50 0 50 0 0 295 0 295 -50 0 -50 0 0 -295z"/>
<path d="M4425 5367 c-3 -7 -4 -138 -3 -292 l3 -280 110 0 c93 0 115 3 145 21
75 43 104 119 104 274 0 168 -42 252 -141 279 -55 16 -212 14 -218 -2z m196
-87 c40 -22 54 -68 54 -185 0 -165 -25 -215 -107 -215 l-38 0 0 205 0 205 36
0 c19 0 44 -5 55 -10z"/>
<path d="M4891 5104 c-35 -152 -66 -285 -69 -296 -4 -17 0 -19 49 -16 l54 3
14 73 13 72 69 0 68 0 10 -52 c5 -29 11 -62 13 -73 3 -17 12 -20 61 -23 53 -3
58 -1 53 15 -3 10 -33 135 -66 278 -34 143 -63 268 -66 278 -4 14 -17 17 -72
17 l-68 0 -63 -276z m152 64 c10 -51 20 -103 23 -115 6 -22 3 -23 -46 -23 -38
0 -51 3 -47 13 2 6 13 58 23 115 10 56 21 102 25 102 3 0 13 -42 22 -92z"/>
<path d="M5190 5335 l0 -45 60 0 60 0 2 -247 3 -248 53 -3 52 -3 0 250 0 251
66 0 65 0 -3 43 -3 42 -177 3 -178 2 0 -45z"/>
<path d="M5607 5374 c-4 -4 -7 -137 -7 -296 l0 -288 155 0 155 0 0 29 c0 16 3
36 6 45 5 14 -7 16 -100 16 l-106 0 0 85 0 84 93 3 92 3 3 43 3 42 -95 0 -96
0 0 75 0 75 98 0 97 0 -1 42 -1 43 -145 3 c-79 1 -147 -1 -151 -4z"/>
<path d="M8863 5341 c-57 -26 -90 -86 -105 -188 -14 -99 0 -214 34 -281 60
-118 251 -123 315 -7 43 78 55 268 22 365 -17 52 -57 100 -95 116 -46 19 -121
17 -171 -5z m118 -71 c40 -22 53 -68 53 -195 0 -99 -3 -127 -19 -160 -18 -36
-23 -40 -59 -40 -55 0 -76 31 -87 130 -9 81 1 198 20 233 20 38 56 51 92 32z"/>
<path d="M9335 5346 c-39 -17 -79 -64 -97 -113 -8 -25 -13 -86 -13 -173 0
-124 2 -139 25 -185 34 -68 91 -98 172 -92 75 7 118 32 146 87 35 71 32 80
-33 80 -46 0 -55 -3 -55 -18 0 -34 -29 -62 -64 -62 -41 0 -61 21 -77 83 -14
58 -7 240 11 279 28 60 112 58 128 -4 8 -31 11 -33 60 -36 49 -3 52 -2 52 20
-1 47 -37 106 -79 127 -47 24 -130 27 -176 7z"/>
<path d="M10130 5342 c-75 -37 -104 -138 -60 -210 19 -31 102 -92 125 -92 7 0
31 -14 53 -30 38 -28 42 -34 42 -74 0 -35 -5 -48 -22 -60 -48 -34 -109 -9
-124 49 -6 23 -11 25 -61 25 l-55 0 7 -32 c20 -94 74 -133 185 -133 61 0 82 4
113 23 87 55 99 182 23 254 -18 17 -66 47 -107 67 -81 40 -101 68 -83 119 18
51 96 42 114 -13 11 -34 13 -35 61 -35 47 0 49 1 49 29 0 38 -38 92 -80 113
-21 11 -58 18 -90 18 -32 0 -69 -7 -90 -18z"/>
<path d="M10564 5346 c-96 -42 -120 -167 -46 -241 15 -15 57 -42 94 -61 83
-42 108 -68 108 -111 0 -68 -76 -98 -125 -48 -14 13 -25 33 -25 45 0 18 -6 20
-56 20 l-57 0 6 -37 c9 -51 34 -83 88 -111 36 -19 55 -23 106 -19 109 8 173
67 173 159 0 85 -28 120 -148 183 -92 48 -116 80 -92 123 13 22 23 27 55 27
36 0 42 -4 58 -37 18 -36 21 -38 69 -38 l50 0 -7 37 c-9 50 -41 92 -81 109
-42 18 -129 17 -170 0z"/>
<path d="M7900 5070 l0 -280 55 0 55 0 0 115 0 115 58 0 c68 0 134 29 166 73
30 40 30 144 0 184 -47 63 -75 73 -210 73 l-124 0 0 -280z m221 181 c19 -15
24 -29 24 -66 0 -60 -27 -85 -91 -85 l-44 0 0 85 0 85 44 0 c28 0 52 -7 67
-19z"/>
<path d="M8330 5069 l0 -280 53 3 52 3 3 118 3 117 42 0 c71 0 87 -25 87 -134
0 -102 2 -106 61 -106 l49 0 0 83 c0 95 -13 150 -42 179 l-20 20 22 20 c76 71
56 206 -36 244 -22 9 -74 14 -154 14 l-120 0 0 -281z m224 185 c37 -36 29
-109 -15 -132 -25 -13 -106 -13 -101 1 1 4 2 39 2 77 l0 70 49 0 c32 0 55 -6
65 -16z"/>
<path d="M9660 5070 l0 -280 154 0 c85 0 157 3 159 8 3 4 7 23 9 42 l3 35
-107 3 -108 3 0 79 0 80 95 0 95 0 0 45 0 45 -95 0 -95 0 0 70 0 70 100 0 100
0 0 40 0 40 -155 0 -155 0 0 -280z"/>
<path d="M6830 5225 l0 -75 -55 0 -55 0 0 65 0 65 -30 0 c-29 0 -29 -1 -32
-62 l-3 -63 -47 -3 -48 -3 0 70 0 71 -30 0 -30 0 0 -105 0 -105 195 0 195 0 0
104 c0 99 -1 104 -22 110 -13 3 -26 6 -30 6 -5 0 -8 -34 -8 -75z"/>
<path d="M11578 5143 l-3 -118 -110 0 -110 0 -3 108 -3 108 -27 -3 -27 -3 -1
-105 -2 -105 -93 0 -94 0 -3 113 c-3 112 -3 112 -27 112 l-25 0 0 -150 0 -150
290 0 291 0 -3 153 c-3 148 -4 152 -25 155 -22 3 -22 1 -25 -115z"/>
<path d="M7505 5109 c-51 -12 -99 -59 -136 -131 -16 -31 -39 -66 -51 -78 -28
-26 -72 -26 -98 0 -36 36 -19 84 35 98 27 8 30 13 33 55 l3 47 -34 0 c-81 0
-141 -77 -134 -173 6 -99 66 -151 168 -145 74 5 105 29 154 118 22 40 50 81
64 91 29 23 79 25 109 3 45 -31 17 -115 -43 -126 -17 -3 -21 -12 -23 -55 l-3
-53 33 7 c77 14 122 56 137 126 32 141 -75 248 -214 216z"/>
<path d="M6551 5006 c-39 -21 -50 -54 -51 -143 l0 -83 195 0 195 0 0 35 0 35
-80 0 c-90 0 -105 11 -79 59 12 22 23 26 64 29 86 4 95 8 95 46 l0 33 -72 -4
c-50 -3 -82 -11 -100 -24 -16 -11 -28 -15 -28 -10 0 16 -55 41 -87 41 -15 -1
-39 -7 -52 -14z m99 -76 c11 -11 20 -33 20 -50 0 -30 -1 -30 -55 -30 l-55 0 0
40 c0 58 50 80 90 40z"/>
<path d="M11402 4843 c-37 -18 -82 -78 -112 -148 -29 -67 -61 -95 -110 -95
-99 0 -123 121 -32 165 36 18 41 24 42 54 0 33 -1 33 -32 27 -126 -24 -161
-202 -59 -289 26 -21 43 -27 82 -27 86 0 118 28 178 153 40 84 76 110 140 104
61 -7 86 -34 86 -96 0 -57 -28 -96 -76 -106 -25 -6 -29 -11 -29 -41 0 -29 4
-34 23 -34 36 0 98 42 119 80 27 48 21 164 -10 208 -42 58 -140 80 -210 45z"/>
<path d="M4485 4591 c-139 -36 -208 -158 -221 -396 -17 -288 49 -459 192 -501
121 -35 261 3 318 85 30 43 56 113 56 150 l0 26 -79 -3 -79 -3 -11 -43 c-14
-57 -51 -91 -100 -91 -74 0 -107 58 -123 215 -15 138 0 308 32 370 43 84 144
87 181 7 10 -23 19 -50 19 -59 0 -16 11 -18 80 -18 l80 0 0 30 c0 81 -62 176
-140 215 -39 20 -156 29 -205 16z"/>
<path d="M3010 4145 l0 -445 85 0 85 0 0 191 0 192 65 -6 c36 -4 74 -11 85
-17 36 -19 50 -63 50 -153 0 -46 3 -112 6 -146 l7 -61 81 0 81 0 -7 152 c-8
169 -22 222 -68 262 l-29 24 43 44 c52 51 71 107 63 189 -6 68 -36 130 -80
163 -55 42 -133 56 -309 56 l-158 0 0 -445z m337 295 c31 -20 43 -53 43 -116
0 -48 -4 -60 -29 -85 -27 -27 -35 -29 -105 -29 l-76 0 0 126 0 127 73 -5 c39
-3 82 -11 94 -18z"/>
<path d="M3690 4145 l0 -445 234 0 c129 0 237 3 239 8 3 4 8 33 11 65 l7 57
-165 0 -166 0 0 130 0 130 150 0 150 0 0 70 0 70 -150 0 -150 0 0 110 0 110
155 0 155 0 0 70 0 70 -235 0 -235 0 0 -445z"/>
<path d="M4940 4146 l0 -446 80 0 80 0 2 188 3 187 64 -2 c120 -3 132 -22 141
-223 4 -80 8 -146 9 -147 0 -2 36 -3 80 -3 l78 0 -4 138 c-2 75 -9 157 -14
181 -12 52 -41 97 -69 106 -27 9 -25 17 10 37 63 36 98 141 80 238 -14 76 -51
124 -119 157 -54 27 -63 28 -238 32 l-183 3 0 -446z m320 296 c19 -9 40 -28
47 -42 29 -58 5 -157 -43 -179 -14 -6 -56 -11 -94 -11 l-70 0 0 125 0 125 63
0 c39 0 75 -6 97 -18z"/>
<path d="M5604 4576 c-3 -8 -4 -169 -2 -358 l3 -343 27 -57 c33 -70 87 -112
166 -129 139 -28 281 14 334 101 41 68 49 147 46 490 l-3 305 -82 3 -83 3 0
-335 c0 -366 -4 -399 -57 -427 -35 -19 -94 -17 -127 5 -53 34 -56 55 -56 421
l0 335 -80 0 c-61 0 -82 -4 -86 -14z"/>
<path d="M6327 4583 c-7 -7 -10 -877 -3 -884 2 -2 41 -3 85 -1 l81 4 0 444 0
444 -78 0 c-43 0 -82 -3 -85 -7z"/>
<path d="M6580 4520 l0 -70 100 0 100 0 0 -375 0 -375 80 0 80 0 2 373 3 372
98 3 97 3 0 69 0 70 -280 0 -280 0 0 -70z"/>
<path d="M7237 4583 c-4 -3 -7 -204 -7 -445 l0 -438 76 0 75 0 -3 375 c-2 207
0 368 4 358 4 -10 32 -171 63 -358 31 -187 58 -348 61 -357 4 -15 18 -18 79
-18 l73 0 11 50 c6 28 36 185 66 348 30 163 59 310 63 326 4 16 6 -141 4 -348
l-3 -376 80 0 81 0 0 445 0 446 -122 -3 -123 -3 -61 -305 c-34 -168 -64 -298
-67 -290 -3 8 -11 51 -17 95 -12 81 -76 441 -85 483 -5 21 -9 22 -124 22 -65
0 -121 -3 -124 -7z"/>
<path d="M8120 4145 l0 -445 238 0 239 0 9 65 10 65 -168 0 -168 0 0 130 0
130 150 0 150 0 0 70 0 70 -150 0 -150 0 0 110 0 110 155 0 155 0 0 70 0 70
-235 0 -235 0 0 -445z"/>
<path d="M8720 4145 l0 -445 76 0 77 0 -5 323 c-3 249 -2 315 7 292 6 -16 61
-162 121 -322 l109 -293 92 0 93 0 -2 443 -3 442 -73 3 -73 3 3 -305 c2 -168
0 -302 -3 -298 -3 4 -54 133 -114 287 -59 154 -111 288 -116 298 -8 14 -24 17
-99 17 l-90 0 0 -445z"/>
<path d="M9377 4583 c-4 -3 -7 -35 -7 -70 l0 -63 100 0 100 0 0 -373 c0 -206
2 -376 4 -378 2 -2 41 -3 85 -1 l81 4 0 374 0 374 100 0 101 0 -3 68 -3 67
-276 3 c-151 1 -278 -1 -282 -5z"/>
<path d="M1208 4441 l-36 -141 29 0 c24 0 29 5 35 36 6 33 8 35 43 32 31 -3
37 -7 41 -33 4 -24 11 -31 33 -33 34 -4 34 0 -6 153 l-32 120 -36 3 -36 3 -35
-140z m87 12 c7 -42 6 -43 -20 -43 -21 0 -26 4 -21 16 3 9 9 34 12 56 8 46 18
36 29 -29z"/>
<path d="M1454 4565 c-34 -23 -47 -67 -42 -151 3 -69 6 -78 32 -101 23 -20 36
-23 60 -18 17 3 46 6 64 6 l32 -1 0 75 0 75 -40 0 c-22 0 -43 0 -47 0 -20 0
-6 -35 15 -38 20 -3 23 -8 17 -30 -14 -57 -58 -65 -72 -13 -11 38 -7 124 6
149 15 27 47 28 61 2 13 -24 60 -28 60 -5 0 9 -11 27 -25 40 -28 29 -88 34
-121 10z"/>
<path d="M1650 4440 l0 -140 79 0 c70 0 79 2 84 20 5 18 0 20 -49 20 l-54 0 0
39 0 40 48 3 c39 3 47 6 47 23 0 17 -8 20 -47 23 -46 3 -48 5 -48 32 0 27 2
29 48 32 40 3 47 6 50 26 3 21 1 22 -77 22 l-81 0 0 -140z"/>
<path d="M1857 4573 c-4 -3 -7 -66 -7 -140 l0 -133 25 0 c24 0 24 1 27 98 l3
97 39 -97 c37 -92 41 -98 68 -98 l28 0 0 141 c0 140 0 140 -22 137 -22 -3 -23
-7 -23 -90 0 -48 -2 -84 -6 -80 -3 4 -21 44 -39 90 -30 74 -36 82 -60 82 -15
0 -30 -3 -33 -7z"/>
<path d="M2126 4555 c-36 -39 -47 -122 -25 -197 11 -41 48 -68 94 -68 29 0 85
49 85 74 0 26 -42 19 -67 -11 l-23 -28 -20 24 c-16 18 -20 38 -20 88 0 35 5
73 10 84 14 25 46 24 60 -1 13 -24 60 -28 60 -5 0 9 -11 27 -25 40 -34 35 -97
35 -129 0z"/>
<path d="M2320 4440 l0 -140 25 0 25 0 0 140 0 140 -25 0 -25 0 0 -140z"/>
<path d="M2430 4440 l0 -140 79 0 c75 0 91 6 91 36 0 2 -25 4 -55 4 l-55 0 0
39 0 40 48 3 c39 3 47 6 47 23 0 17 -8 20 -47 23 -46 3 -48 5 -48 33 0 28 1
29 50 29 47 0 50 2 50 25 0 25 -1 25 -80 25 l-80 0 0 -140z"/>
<path d="M2663 4565 c-53 -37 -36 -103 36 -139 52 -27 71 -57 51 -81 -19 -23
-49 -18 -62 10 -7 16 -19 25 -35 25 -29 0 -31 -28 -4 -61 16 -19 29 -24 69
-24 64 0 92 23 92 75 0 45 -13 63 -70 93 -34 18 -45 29 -45 48 0 32 39 39 55
9 7 -13 19 -20 32 -18 31 4 33 24 4 53 -29 29 -88 34 -123 10z"/>
<path d="M10273 4550 c-69 -31 -104 -111 -83 -189 15 -56 50 -94 112 -122 49
-22 66 -24 218 -24 158 0 167 1 222 27 70 33 98 72 98 141 0 54 -12 84 -44
109 l-21 18 28 0 c23 0 27 4 27 30 l0 30 -175 0 -175 0 0 -90 0 -90 30 0 c30
0 30 1 30 55 l0 55 63 0 c117 0 177 -34 177 -100 0 -85 -66 -115 -255 -115
-203 0 -275 31 -275 118 0 51 27 83 78 93 28 6 32 10 32 40 0 29 -4 34 -22 34
-13 0 -42 -9 -65 -20z"/>
<path d="M11578 4333 l-3 -118 -110 0 -110 0 -3 108 -3 108 -27 -3 -27 -3 -1
-105 -2 -105 -93 0 -94 0 -3 113 c-3 112 -3 112 -27 112 l-25 0 0 -150 0 -150
290 0 290 0 0 155 0 155 -25 0 -24 0 -3 -117z"/>
<path d="M1360 4142 c-60 -30 -75 -70 -75 -202 0 -135 14 -172 73 -197 67 -28
130 -2 158 64 18 43 18 43 -13 43 -22 0 -31 -8 -43 -33 -19 -41 -66 -49 -96
-16 -17 18 -19 36 -19 144 0 107 2 126 19 144 35 38 106 16 106 -32 0 -12 9
-17 30 -17 28 0 30 2 24 28 -11 43 -33 70 -66 81 -42 15 -57 14 -98 -7z"/>
<path d="M2302 4145 c-51 -23 -75 -87 -75 -201 1 -110 24 -174 72 -198 66 -34
132 -10 163 61 24 55 28 206 7 267 -25 69 -100 101 -167 71z m105 -62 c15 -22
18 -49 18 -138 0 -133 -13 -165 -70 -165 -54 0 -70 39 -70 170 0 128 14 160
70 160 27 0 39 -6 52 -27z"/>
<path d="M55 3958 c-26 -106 -50 -199 -53 -206 -3 -10 3 -13 24 -10 25 3 30 9
42 61 l14 57 58 0 57 0 12 -60 c12 -58 13 -60 43 -60 20 0 29 4 26 13 -3 6
-27 99 -54 204 l-49 193 -36 0 -35 0 -49 -192z m109 35 c9 -40 16 -74 16 -77
0 -4 -18 -6 -40 -6 -25 0 -40 5 -40 12 0 35 35 167 41 156 4 -7 14 -45 23 -85z"/>
<path d="M330 3945 l0 -205 25 0 c25 0 25 1 25 84 l0 83 48 6 c68 8 99 25 118
65 24 51 14 110 -26 145 -28 25 -37 27 -110 27 l-80 0 0 -205z m151 146 c16
-13 23 -29 23 -54 0 -52 -27 -77 -81 -77 l-43 0 0 75 0 75 39 0 c23 0 48 -8
62 -19z"/>
<path d="M620 3945 l0 -205 25 0 c25 0 25 1 25 84 l0 83 48 6 c68 8 99 25 118
65 24 51 14 110 -26 145 -28 25 -37 27 -110 27 l-80 0 0 -205z m150 147 c16
-13 22 -29 22 -56 0 -52 -24 -76 -79 -76 l-43 0 0 75 0 75 39 0 c22 0 48 -8
61 -18z"/>
<path d="M910 3945 l0 -205 100 0 c93 0 100 1 100 20 0 18 -7 20 -75 20 l-75
0 0 185 0 185 -25 0 -25 0 0 -205z"/>
<path d="M1160 3945 l0 -205 25 0 25 0 0 205 0 205 -25 0 -25 0 0 -205z"/>
<path d="M1660 4145 c0 -4 -22 -94 -50 -201 -27 -107 -50 -196 -50 -199 0 -14
49 -3 54 13 3 9 10 36 16 60 l11 43 57 -3 56 -3 14 -57 c13 -54 16 -58 42 -58
l28 0 -52 203 -53 202 -36 3 c-20 2 -37 0 -37 -3z m55 -127 c9 -40 19 -81 22
-90 4 -15 -3 -18 -42 -18 -34 0 -46 4 -42 13 2 6 12 47 22 90 10 42 20 77 21
77 1 0 9 -33 19 -72z"/>
<path d="M1810 4131 c0 -17 8 -20 48 -23 l47 -3 3 -182 2 -183 25 0 25 0 0
185 0 185 50 0 c43 0 50 3 50 20 0 19 -7 20 -125 20 -117 0 -125 -1 -125 -19z"/>
<path d="M2100 3945 l0 -205 30 0 30 0 0 205 0 205 -30 0 -30 0 0 -205z"/>
<path d="M2550 3945 l0 -205 25 0 25 0 0 168 1 167 68 -165 c66 -161 68 -165
99 -168 l32 -3 0 205 0 206 -25 0 -26 0 3 -155 c2 -85 1 -155 -2 -155 -3 0
-13 19 -22 43 -8 23 -37 93 -63 155 -47 111 -47 112 -81 112 l-34 0 0 -205z"/>
<path d="M10190 4070 l0 -30 256 -2 256 -3 -254 -100 -253 -100 0 -43 0 -43
318 -2 317 -2 0 32 0 33 -261 2 -260 3 258 101 258 101 3 41 3 42 -320 0 -321
0 0 -30z"/>
<path d="M11121 4023 c-57 -30 -71 -70 -71 -200 l0 -113 290 0 290 0 0 35 0
35 -136 0 -137 0 6 67 c4 57 9 71 32 90 22 19 38 23 99 23 41 0 88 3 105 6 27
6 31 11 31 39 l0 33 -107 -5 c-110 -6 -154 -19 -174 -52 -11 -16 -14 -15 -44
17 -29 32 -39 36 -91 39 -43 3 -68 -1 -93 -14z m138 -67 c36 -19 51 -55 51
-121 l0 -55 -105 0 -105 0 0 58 c0 31 6 68 13 82 24 47 92 64 146 36z"/>
<path d="M10197 3613 c-4 -3 -7 -19 -7 -35 l0 -28 320 0 320 0 0 35 0 35 -313
0 c-173 0 -317 -3 -320 -7z"/>
<path d="M8023 3534 c-45 -22 -69 -66 -84 -148 -21 -124 8 -265 63 -299 85
-53 210 -5 225 86 l6 37 -41 0 c-35 0 -41 -3 -50 -29 -20 -57 -81 -61 -101 -8
-30 80 -23 243 14 284 29 35 72 26 87 -17 9 -27 15 -30 50 -30 l41 0 -6 36
c-14 86 -118 130 -204 88z"/>
<path d="M12579 3527 c-19 -12 -45 -44 -59 -72 -22 -44 -25 -63 -25 -155 1
-163 43 -233 140 -233 24 0 55 7 69 17 23 14 26 14 26 1 0 -11 10 -15 35 -15
l35 0 0 135 0 135 -75 0 -75 0 0 -35 c0 -32 2 -35 30 -35 29 0 30 -2 30 -46 0
-64 -13 -84 -55 -84 -56 0 -69 31 -69 159 1 118 11 156 50 173 31 14 53 3 72
-35 11 -23 20 -27 54 -27 40 0 40 0 34 32 -9 47 -33 78 -71 94 -51 21 -107 18
-146 -9z"/>
<path d="M8322 3318 c-29 -123 -52 -229 -52 -235 0 -8 15 -13 40 -13 l39 0 13
60 12 60 57 0 58 0 12 -60 12 -60 43 0 c24 0 44 4 44 9 0 9 -81 351 -101 424
l-10 37 -57 0 -58 0 -52 -222z m148 -45 c0 -14 -65 -18 -74 -5 -4 7 20 143 31
172 5 13 41 -130 43 -167z"/>
<path d="M8650 3306 l0 -236 40 0 40 0 0 100 0 100 39 0 c57 0 71 -19 71 -93
0 -97 5 -107 52 -107 l40 0 -4 95 c-3 80 -7 98 -26 118 l-22 24 20 18 c47 43
45 138 -6 186 -23 22 -35 24 -135 27 l-109 4 0 -236z m183 146 c20 -18 22 -61
4 -86 -8 -11 -31 -20 -60 -23 l-47 -6 0 65 c0 36 2 67 5 69 9 10 81 -4 98 -19z"/>
<path d="M9000 3305 l0 -236 128 3 127 3 3 38 3 37 -85 0 -86 0 0 65 0 65 81
0 80 0 -3 36 -3 37 -75 1 -75 1 -3 58 -3 57 81 0 80 0 0 35 0 35 -125 0 -125
0 0 -235z"/>
<path d="M9320 3305 l0 -235 124 0 124 0 6 31 c3 17 3 35 0 41 -3 5 -43 8 -87
7 l-82 -2 -3 66 -3 67 81 0 80 0 0 35 0 35 -65 1 c-36 1 -71 2 -77 3 -9 1 -13
19 -13 56 l0 55 83 3 82 3 0 34 0 35 -125 0 -125 0 0 -235z"/>
<path d="M9632 3308 l3 -233 43 -3 42 -3 0 100 0 101 38 0 c57 0 71 -20 74
-115 l3 -80 44 -3 44 -3 -5 91 c-4 72 -10 98 -27 120 l-21 29 25 25 c21 21 25
35 25 80 0 47 -4 61 -29 88 l-29 33 -116 3 -116 4 2 -234z m192 140 c22 -32
20 -55 -9 -83 -16 -17 -35 -25 -60 -25 l-35 0 0 65 0 65 44 0 c35 0 48 -5 60
-22z"/>
<path d="M11040 3305 l0 -235 45 0 45 0 0 105 0 105 61 0 60 0 -2 -102 -2
-103 42 -3 41 -3 0 235 0 236 -40 0 -40 0 0 -90 0 -90 -60 0 -60 0 0 90 0 90
-45 0 -45 0 0 -235z"/>
<path d="M11420 3304 l0 -235 43 3 42 3 3 233 2 232 -45 0 -45 0 0 -236z"/>
<path d="M11590 3305 l0 -235 45 0 45 0 0 100 0 100 39 0 c54 0 65 -18 71
-114 l5 -81 44 -3 44 -3 -7 47 c-3 26 -6 69 -6 96 0 39 -5 54 -25 74 -20 20
-22 26 -10 31 38 14 57 101 35 157 -18 49 -63 66 -177 66 l-103 0 0 -235z
m188 153 c7 -7 12 -29 12 -49 0 -45 -27 -69 -77 -69 l-33 0 0 65 0 65 43 0
c24 0 48 -5 55 -12z"/>
<path d="M11950 3304 l0 -235 43 3 42 3 3 233 2 232 -45 0 -45 0 0 -236z"/>
<path d="M12122 3308 l3 -233 37 -3 38 -3 2 167 3 167 61 -164 61 -164 47 -3
46 -3 0 235 0 236 -35 0 -34 0 -3 -157 -3 -158 -60 157 -60 158 -53 0 -52 0 2
-232z"/>
<path d="M3890 3415 l0 -115 -90 0 -90 0 0 105 0 105 -45 0 -45 0 0 -105 0
-105 -75 0 -75 0 0 110 0 110 -50 0 -50 0 0 -165 0 -165 305 0 305 0 0 164 c0
179 1 176 -61 176 l-29 0 0 -115z"/>
<path d="M7333 3518 c-41 -11 -65 -47 -67 -97 -2 -73 37 -113 109 -113 61 0
79 13 124 91 44 74 53 81 110 81 45 0 71 -24 71 -64 0 -29 -39 -76 -65 -76 -9
0 -15 -9 -15 -25 0 -29 8 -30 55 -11 81 34 88 179 10 214 -40 18 -113 15 -143
-7 -15 -10 -42 -46 -61 -79 -40 -72 -78 -95 -119 -71 -50 28 -46 92 8 110 19
7 30 18 30 29 0 25 -9 29 -47 18z"/>
<path d="M2954 3506 c-52 -23 -74 -61 -74 -127 0 -50 4 -63 30 -92 16 -19 56
-48 88 -65 81 -43 97 -63 97 -124 0 -40 -5 -53 -24 -69 -51 -41 -125 -14 -138
51 -5 26 -10 30 -41 30 -34 0 -35 0 -29 -37 13 -76 68 -118 153 -117 70 0 114
28 138 86 39 95 1 176 -112 236 -88 47 -112 84 -92 138 14 35 26 44 67 44 36
0 60 -20 69 -56 5 -19 12 -24 40 -24 32 0 34 2 28 28 -13 51 -35 84 -69 98
-42 17 -90 17 -131 0z"/>
<path d="M4405 3511 c-40 -10 -86 -35 -107 -58 -49 -54 -63 -165 -29 -231 28
-54 54 -75 169 -133 114 -57 142 -86 142 -150 0 -115 -154 -133 -196 -23 l-17
44 -68 0 c-66 0 -69 -1 -69 -24 0 -32 19 -85 43 -120 55 -78 233 -105 342 -51
76 37 108 85 113 172 8 123 -37 186 -185 255 -118 55 -143 79 -143 134 0 56
25 84 76 84 51 0 72 -15 85 -60 l12 -40 72 0 72 0 -8 43 c-4 23 -8 45 -9 49 0
5 -16 26 -36 48 -54 60 -161 85 -259 61z"/>
<path d="M6692 3510 c-89 -21 -152 -102 -152 -196 1 -103 51 -161 198 -229 99
-46 132 -82 132 -144 0 -38 -5 -52 -26 -72 -55 -52 -153 -21 -172 55 -8 31 -9
31 -81 34 l-74 3 6 -41 c15 -115 106 -183 246 -183 155 0 241 69 249 200 8
125 -32 180 -191 259 -121 60 -137 76 -137 131 0 57 25 83 80 83 47 0 78 -25
87 -70 l6 -30 74 0 c66 0 74 2 69 18 -2 9 -8 32 -11 51 -21 102 -164 164 -303
131z"/>
<path d="M610 3235 l0 -275 87 0 c112 0 162 22 192 84 12 23 21 58 21 77 -1
46 -33 116 -59 124 -21 6 -29 25 -11 25 19 0 50 65 50 103 0 52 -26 105 -61
122 -19 10 -59 15 -124 15 l-95 0 0 -275z m192 197 c14 -14 20 -32 20 -63 -1
-58 -23 -77 -92 -80 l-55 -3 -3 73 c-2 41 0 81 3 89 8 22 101 11 127 -16z m9
-228 c22 -23 35 -80 25 -119 -12 -48 -40 -65 -106 -65 l-60 0 0 106 0 106 60
-4 c43 -3 67 -10 81 -24z"/>
<path d="M990 3235 l0 -275 130 0 130 0 0 30 0 30 -100 0 -100 0 0 100 0 100
90 0 90 0 0 30 0 30 -90 0 -90 0 0 85 0 85 95 0 95 0 0 30 0 30 -125 0 -125 0
0 -275z"/>
<path d="M1320 3235 l0 -275 30 0 30 0 0 228 1 227 87 -225 87 -225 37 -3 37
-3 3 275 3 276 -33 0 -33 0 3 -210 c2 -115 0 -206 -3 -202 -4 4 -42 98 -85
209 l-79 203 -42 0 -43 0 0 -275z"/>
<path d="M1740 3235 l0 -276 133 3 132 3 3 28 3 27 -100 0 -101 0 0 100 0 100
90 0 90 0 0 30 0 30 -90 0 -90 0 0 85 0 85 95 0 95 0 0 30 0 30 -130 0 -130 0
0 -275z"/>
<path d="M2080 3234 l0 -275 33 3 32 3 3 128 3 127 90 0 90 0 -3 28 c-3 27 -3
27 -90 30 l-88 3 0 84 0 85 95 0 95 0 0 30 0 30 -130 0 -130 0 0 -276z"/>
<path d="M2400 3235 l0 -275 35 0 35 0 0 275 0 275 -35 0 -35 0 0 -275z"/>
<path d="M2526 3483 c1 -27 3 -28 62 -31 l62 -3 0 -244 0 -245 30 0 30 0 0
245 0 244 63 3 c59 3 62 4 65 31 l3 27 -158 0 -159 0 2 -27z"/>
<path d="M4991 3473 c-6 -21 -46 -182 -90 -358 -45 -176 -84 -330 -87 -342 -6
-22 -4 -23 68 -23 l75 0 19 93 20 92 96 3 96 3 12 -58 c6 -32 16 -75 21 -95
l10 -38 74 0 c41 0 75 3 75 7 0 6 -176 703 -186 736 -5 15 -19 17 -99 17 l-94
0 -10 -37z m169 -405 c0 -5 -31 -8 -68 -8 l-69 0 29 133 c15 72 31 143 34 157
5 18 16 -17 40 -125 18 -82 33 -153 34 -157z"/>
<path d="M5470 3130 l0 -380 209 0 208 0 7 38 c12 77 22 72 -134 72 l-140 0 0
325 0 325 -75 0 -75 0 0 -380z"/>
<path d="M6000 3130 l0 -380 210 0 209 0 5 33 c3 17 7 43 8 57 l3 25 -147 3
-148 3 0 109 0 110 135 0 135 0 0 55 0 54 -132 3 -133 3 -3 93 -3 92 141 0
140 0 0 60 0 60 -210 0 -210 0 0 -380z"/>
<path d="M10197 3474 c-4 -4 -7 -86 -7 -181 l0 -174 32 3 32 3 -3 68 -2 67
290 0 291 0 0 35 0 35 -287 2 -288 3 -1 70 c-2 66 -3 70 -26 73 -13 2 -27 0
-31 -4z"/>
<path d="M7270 3204 l0 -27 175 5 c96 3 173 3 170 0 -3 -3 -81 -35 -173 -72
-165 -65 -167 -66 -170 -98 l-3 -32 223 2 c215 3 223 4 223 23 0 19 -7 20
-182 20 -100 0 -180 2 -177 4 2 2 81 35 176 72 95 37 177 74 182 82 5 8 6 22
3 31 -6 14 -32 16 -227 16 l-220 0 0 -26z"/>
<path d="M10570 3061 c-34 -18 -63 -55 -124 -161 -26 -46 -38 -57 -72 -68 -36
-11 -47 -11 -78 2 -81 34 -68 141 20 165 23 6 30 14 32 39 3 29 1 32 -25 32
-41 0 -95 -32 -117 -70 -24 -40 -25 -124 -2 -168 32 -61 116 -94 187 -73 56
17 92 52 133 130 50 95 82 121 152 121 74 0 104 -28 104 -95 0 -38 -5 -52 -29
-76 -17 -17 -40 -29 -55 -29 -24 0 -26 -4 -26 -39 l0 -39 43 9 c91 20 130 76
125 181 -4 77 -24 113 -79 140 -47 24 -143 24 -189 -1z"/>
<path d="M3370 3020 l0 -50 208 0 207 -1 -205 -82 -205 -82 -3 -67 -3 -68 306
0 305 0 0 56 0 55 -215 -3 c-118 -2 -211 0 -207 3 4 3 100 41 215 84 l207 79
0 63 0 63 -305 0 -305 0 0 -50z"/>
<path d="M7367 2897 c-59 -17 -84 -40 -98 -88 -10 -31 -9 -43 7 -75 30 -61 71
-78 196 -82 116 -4 190 12 223 48 10 11 20 41 22 67 6 57 -19 97 -76 120 -49
21 -214 26 -274 10z m273 -62 c60 -31 44 -105 -27 -124 -58 -16 -207 -14 -250
4 -43 18 -53 30 -53 66 0 57 67 81 207 74 56 -3 105 -11 123 -20z"/>
<path d="M8635 2888 c-28 -16 -35 -28 -35 -65 0 -40 30 -73 66 -73 25 0 54 25
102 89 31 41 86 41 92 1 5 -33 -1 -47 -26 -59 -29 -13 -27 -38 2 -33 51 8 73
93 34 132 -24 24 -77 26 -108 4 -12 -8 -31 -32 -42 -53 -21 -41 -42 -55 -71
-46 -32 10 -35 46 -5 70 41 32 34 57 -9 33z"/>
<path d="M9020 2715 c0 -168 1 -175 20 -175 18 0 20 7 20 85 l0 85 60 0 60 0
0 -85 c0 -78 2 -85 20 -85 19 0 20 7 20 175 0 168 -1 175 -20 175 -18 0 -20
-7 -20 -75 l0 -75 -60 0 -60 0 0 75 c0 68 -2 75 -20 75 -19 0 -20 -7 -20 -175z"/>
<path d="M9290 2715 l0 -175 90 0 c72 0 90 3 90 15 0 11 -16 15 -66 17 l-66 3
0 65 0 65 61 3 c45 2 61 7 61 17 0 12 -14 15 -58 15 -32 0 -61 2 -63 4 -2 2
-2 29 -1 60 l4 56 64 0 c50 0 64 3 64 15 0 12 -17 15 -90 15 l-90 0 0 -175z"/>
<path d="M9520 2715 l0 -175 85 0 c69 0 85 3 85 15 0 12 -14 15 -65 15 l-65 0
0 160 c0 153 -1 160 -20 160 -19 0 -20 -7 -20 -175z"/>
<path d="M9730 2715 c0 -168 1 -175 20 -175 18 0 20 7 20 74 l0 73 51 5 c70 7
104 41 104 104 0 38 -5 50 -28 70 -24 20 -39 24 -98 24 l-69 0 0 -175z m134
129 c19 -18 21 -85 4 -102 -7 -7 -31 -12 -55 -12 l-43 0 0 65 0 65 39 0 c23 0
46 -7 55 -16z"/>
<path d="M11088 2874 c-15 -8 -35 -28 -43 -44 -36 -70 -6 -124 97 -173 86 -41
102 -57 102 -104 0 -84 -122 -101 -155 -22 -9 23 -18 29 -40 29 -33 0 -37 -16
-14 -60 21 -40 63 -60 130 -60 97 0 145 40 145 121 0 62 -24 91 -114 133 -86
41 -98 54 -94 98 6 65 92 77 126 18 12 -22 25 -30 45 -30 39 0 36 33 -7 76
-31 31 -39 34 -92 34 -33 -1 -71 -7 -86 -16z"/>
<path d="M11390 2665 l0 -225 30 0 30 0 0 83 c0 78 2 85 28 110 l28 27 60
-108 c59 -104 62 -107 98 -110 21 -2 37 0 35 5 -2 5 -37 66 -77 136 l-73 127
70 84 c39 46 71 86 71 90 0 3 -15 6 -32 6 -30 0 -41 -11 -118 -107 l-85 -107
-3 107 -3 107 -29 0 -30 0 0 -225z"/>
<path d="M11744 2877 c-2 -7 -3 -107 -2 -222 l3 -210 33 -3 32 -3 0 225 0 226
-30 0 c-17 0 -33 -6 -36 -13z"/>
<path d="M11912 2668 l3 -223 120 0 c117 0 120 1 123 23 3 21 1 22 -87 22
l-91 0 -2 198 -3 197 -33 3 -32 3 2 -223z"/>
<path d="M12220 2665 l0 -226 123 3 c118 3 122 4 125 26 3 21 1 22 -92 22
l-96 0 0 200 0 200 -30 0 -30 0 0 -225z"/>
<path d="M12573 2871 c-39 -24 -53 -49 -53 -94 0 -48 33 -85 107 -119 78 -35
103 -59 103 -99 0 -45 -16 -67 -53 -74 -46 -9 -87 10 -100 45 -9 25 -17 30
-43 30 -32 0 -32 -1 -23 -32 16 -58 50 -81 122 -86 105 -7 167 37 167 118 0
63 -27 92 -140 148 -82 41 -98 97 -37 132 34 19 77 4 95 -33 10 -21 20 -27 44
-27 28 0 30 2 23 28 -12 52 -48 76 -117 80 -50 2 -70 -1 -95 -17z"/>
<path d="M8017 2839 c-15 -11 -31 -37 -37 -57 -12 -40 -10 -172 3 -172 4 0
102 0 217 0 l210 0 0 35 0 34 -92 3 -93 3 2 34 c0 18 6 38 13 45 6 6 46 13 88
16 l77 5 3 38 3 37 -63 0 c-74 0 -137 -15 -145 -36 -4 -11 -11 -9 -35 11 -39
33 -113 35 -151 4z m131 -77 c6 -9 12 -31 12 -49 l0 -33 -61 0 -60 0 3 42 c2
33 8 45 26 54 28 14 62 8 80 -14z"/>
<path d="M2105 2745 c0 -38 0 -38 135 -83 l55 -19 -85 -28 c-47 -15 -89 -31
-94 -36 -11 -10 -14 -79 -3 -79 4 0 56 21 115 46 94 41 118 48 202 53 l95 6 0
35 0 35 -90 5 c-79 5 -104 12 -199 53 -60 26 -114 47 -120 47 -6 0 -11 -16
-11 -35z"/>
<path d="M2765 2771 c-43 -18 -60 -50 -60 -111 0 -51 4 -63 30 -90 38 -40 108
-60 210 -60 98 0 172 20 206 56 34 36 34 112 0 148 -24 26 -24 26 -3 26 15 0
22 6 22 20 0 19 -7 20 -125 20 l-125 0 0 -65 c0 -58 2 -65 20 -65 17 0 20 7
20 40 l0 40 48 0 c60 0 116 -27 120 -59 12 -79 -34 -104 -189 -104 -117 -1
-160 14 -188 64 -20 36 2 80 47 93 24 7 32 14 32 32 0 26 -25 31 -65 15z"/>
<path d="M8860 2666 l0 -56 -55 0 -55 0 0 50 c0 38 -4 50 -15 50 -11 0 -15
-12 -15 -50 l0 -50 -45 0 -45 0 0 50 c0 38 -4 50 -15 50 -12 0 -15 -14 -15
-65 l0 -65 145 0 146 0 -3 67 c-2 42 -8 68 -15 71 -10 3 -13 -12 -13 -52z"/>
<path d="M10770 2560 l0 -120 -120 0 -119 0 -3 108 -3 107 -30 0 -30 0 -3
-108 -3 -108 -102 3 -102 3 -2 110 -2 110 -28 0 -28 0 -3 -147 -3 -148 321 0
320 0 0 149 c0 146 0 149 -22 155 -13 3 -26 6 -30 6 -5 0 -8 -54 -8 -120z"/>
<path d="M7270 2550 c0 -19 7 -20 225 -20 218 0 225 1 225 20 0 19 -7 20 -225
20 -218 0 -225 -1 -225 -20z"/>
<path d="M3377 2553 c-4 -3 -7 -30 -7 -60 l0 -53 305 0 305 0 0 60 0 60 -298
0 c-164 0 -302 -3 -305 -7z"/>
<path d="M8345 2552 c-3 -3 -5 -38 -5 -79 l0 -73 -60 0 -60 0 0 70 0 70 -35 0
-35 0 0 -70 0 -70 -55 0 -55 0 0 76 0 75 -32 -3 -33 -3 -3 -112 -3 -113 221 0
220 0 0 114 0 114 -30 4 c-17 3 -32 2 -35 0z"/>
<path d="M8600 2470 c0 -64 3 -80 15 -80 10 0 15 10 15 30 l0 30 130 0 c109 0
130 2 130 15 0 13 -21 15 -130 15 l-130 0 0 35 c0 24 -5 35 -15 35 -12 0 -15
-16 -15 -80z"/>
<path d="M5164 2520 c-85 -42 -126 -191 -104 -374 18 -158 69 -220 177 -220
59 0 93 19 130 73 30 45 43 115 43 240 0 169 -33 254 -110 285 -53 21 -86 20
-136 -4z m129 -66 c38 -37 50 -109 45 -255 -5 -132 -17 -173 -60 -203 -52 -37
-116 1 -139 81 -16 59 -17 252 -1 309 26 90 101 123 155 68z"/>
<path d="M5615 2527 c-81 -37 -119 -133 -119 -302 0 -142 16 -205 63 -255 89
-93 251 -40 268 89 6 40 5 41 -25 41 -27 0 -32 -5 -44 -42 -18 -58 -56 -84
-105 -72 -50 12 -71 51 -84 155 -11 87 -6 173 13 247 12 46 56 92 88 92 49 0
90 -41 90 -90 0 -16 7 -20 35 -20 28 0 35 4 35 20 0 36 -32 100 -61 121 -37
26 -114 34 -154 16z"/>
<path d="M6375 2525 c-50 -18 -83 -58 -91 -112 -13 -85 30 -144 147 -203 88
-45 115 -100 89 -177 -20 -57 -108 -72 -153 -27 -14 14 -29 39 -32 55 -6 24
-11 29 -37 29 -30 0 -31 -1 -25 -40 11 -82 63 -123 158 -123 104 0 164 59 164
164 0 82 -31 123 -134 179 -54 28 -88 54 -97 71 -34 66 -1 139 62 139 49 0 71
-14 84 -55 9 -27 17 -35 36 -35 36 0 39 3 35 30 -12 90 -110 140 -206 105z"/>
<path d="M6776 2530 c-65 -20 -100 -79 -94 -155 6 -70 33 -105 117 -149 93
-49 121 -83 121 -147 0 -40 -5 -55 -25 -74 -51 -52 -147 -21 -161 50 -6 32 -9
35 -40 35 -37 0 -39 -5 -24 -61 35 -126 248 -143 304 -25 20 42 21 128 1 165
-19 38 -66 76 -136 111 -70 36 -89 61 -89 117 0 56 26 83 79 83 31 0 44 -6 60
-26 12 -15 21 -35 21 -45 0 -15 8 -19 36 -19 36 0 36 1 30 32 -8 40 -29 73
-59 93 -29 19 -103 27 -141 15z"/>
<path d="M4260 2230 l0 -300 35 0 35 0 0 129 0 129 74 4 c80 4 110 18 150 72
16 21 21 42 21 94 0 128 -56 172 -218 172 l-97 0 0 -300z m222 210 c28 -29 30
-35 26 -87 -7 -78 -36 -103 -119 -103 l-59 0 0 110 0 110 61 0 c54 0 64 -3 91
-30z"/>
<path d="M4660 2230 l0 -300 35 0 35 0 0 141 0 141 60 -4 c93 -7 103 -21 111
-160 4 -62 7 -114 8 -115 1 -2 15 -3 31 -3 l30 0 0 91 c0 111 -15 173 -47 199
-24 19 -24 19 -4 30 54 28 70 158 28 221 -30 45 -71 58 -189 58 l-98 1 0 -300z
m217 220 c28 -26 37 -69 23 -120 -13 -49 -51 -70 -125 -70 l-45 0 0 105 0 105
63 0 c49 0 68 -4 84 -20z"/>
<path d="M5920 2230 l0 -301 143 3 142 3 3 28 3 27 -110 0 -111 0 0 115 0 115
100 0 100 0 0 30 0 30 -100 0 -100 0 0 95 0 95 105 0 105 0 0 30 0 30 -140 0
-140 0 0 -300z"/>
<path d="M7270 2355 c0 -118 1 -125 20 -125 17 0 20 7 20 50 l0 50 203 2 c194
3 202 4 202 23 0 19 -8 20 -202 23 l-203 2 0 50 c0 43 -3 50 -20 50 -19 0 -20
-7 -20 -125z"/>
<path d="M2108 2345 l3 -125 30 0 c28 0 29 2 29 45 l0 45 180 0 180 0 0 35 0
35 -180 0 -180 0 0 45 c0 44 -1 45 -32 45 l-33 0 3 -125z"/>
<path d="M2710 2404 l0 -25 185 3 c101 2 181 0 177 -3 -4 -3 -87 -38 -184 -78
l-178 -73 0 -34 0 -34 230 0 230 0 0 25 0 25 -192 0 -193 0 135 56 c74 30 160
65 190 78 49 20 55 26 58 54 l3 32 -230 0 -231 0 0 -26z"/>
<path d="M3890 2270 l0 -110 -260 0 -260 0 0 -60 0 -60 305 0 305 0 0 164 c0
161 0 164 -22 170 -13 3 -33 6 -45 6 -22 0 -23 -3 -23 -110z"/>
<path d="M8600 2340 c0 -20 4 -20 143 -18 118 3 142 5 142 18 0 13 -24 15
-142 18 -139 2 -143 2 -143 -18z"/>
<path d="M10190 2125 l0 -175 33 0 32 0 0 68 0 67 288 3 287 2 0 35 0 35 -287
2 -288 3 -3 68 c-3 67 -3 67 -32 67 l-30 0 0 -175z"/>
<path d="M8640 2273 c-24 -9 -40 -35 -40 -66 0 -42 16 -65 50 -72 40 -9 71 12
101 65 24 43 47 55 84 46 41 -10 40 -66 -2 -85 -28 -13 -26 -38 3 -33 51 8 73
93 34 132 -13 13 -33 20 -58 20 -42 0 -67 -20 -95 -76 -24 -47 -80 -53 -93
-11 -5 15 0 26 20 42 38 30 36 52 -4 38z"/>
<path d="M7970 2160 l0 -110 221 0 220 0 -3 38 -3 37 -92 3 -93 3 0 64 0 65
-35 0 -35 0 0 -65 0 -65 -55 0 -55 0 0 70 0 70 -35 0 -35 0 0 -110z"/>
<path d="M7488 2202 l-218 -54 0 -32 0 -32 218 -52 c119 -29 221 -52 225 -52
5 0 7 10 5 22 -2 16 -13 24 -38 31 -19 4 -52 13 -73 18 l-38 10 3 57 3 57 70
16 c51 11 71 20 73 33 2 10 0 22 -5 26 -4 4 -106 -18 -225 -48z m42 -88 c0
-43 -2 -46 -22 -41 -13 3 -59 13 -103 23 -44 9 -74 19 -67 22 28 9 158 40 175
41 14 1 17 -7 17 -45z"/>
<path d="M2109 2175 c0 -3 -1 -20 -2 -37 l-1 -33 210 0 209 0 0 35 0 35 -207
3 c-115 1 -208 0 -209 -3z"/>
<path d="M8650 2083 c-38 -14 -50 -36 -50 -90 l0 -53 145 0 145 0 0 49 c0 68
-27 101 -82 101 -23 0 -49 -7 -58 -15 -15 -14 -20 -14 -46 0 -31 16 -32 16
-54 8z m198 -35 c7 -7 12 -27 12 -45 l0 -33 -55 0 -55 0 0 33 c0 41 15 57 55
57 17 0 36 -5 43 -12z m-134 -14 c3 -9 6 -27 6 -40 0 -22 -4 -24 -45 -24 -44
0 -45 0 -45 33 0 19 3 37 7 40 13 14 71 7 77 -9z"/>
<path d="M2460 1991 l0 -71 -177 -2 -177 -3 0 -35 0 -35 210 0 209 0 0 105 0
105 -32 3 -33 3 0 -70z"/>
<path d="M2710 2035 l0 -25 230 0 230 0 0 25 0 25 -230 0 -230 0 0 -25z"/>
<path d="M7972 1888 l3 -113 218 -3 217 -2 0 40 0 40 -95 0 -95 0 0 70 0 70
-35 0 -35 0 0 -70 0 -70 -55 0 -55 0 0 75 0 75 -35 0 -36 0 3 -112z"/>
<path d="M7270 1825 c0 -108 1 -115 20 -115 18 0 20 7 20 85 0 50 4 85 10 85
6 0 88 -40 183 -90 96 -49 184 -90 196 -90 21 0 22 2 19 118 -3 113 -4 117
-25 120 -22 3 -23 1 -23 -88 0 -50 -4 -90 -8 -88 -4 2 -85 42 -179 91 -94 48
-181 87 -192 87 -20 0 -21 -5 -21 -115z"/>
<path d="M3372 1878 l3 -53 208 1 c114 0 206 0 205 -1 -2 -1 -96 -39 -210 -85
l-208 -82 0 -64 0 -64 305 0 305 0 0 50 0 50 -217 1 c-194 0 -214 2 -183 14
19 7 116 45 215 83 l180 70 3 66 3 66 -306 0 -306 0 3 -52z"/>
<path d="M2710 1893 c0 -22 1 -23 185 -25 l186 -3 -183 -75 -183 -76 -3 -37
-3 -37 230 0 231 0 0 25 0 25 -192 2 -191 3 191 79 c186 76 192 80 192 107 l0
28 -230 3 -230 3 0 -22z"/>
<path d="M8600 1830 l0 -71 143 3 142 3 3 68 c2 55 0 67 -13 67 -11 0 -15 -12
-15 -50 l0 -50 -55 0 -55 0 0 45 c0 33 -4 45 -15 45 -11 0 -15 -12 -15 -45 l0
-45 -45 0 -45 0 0 50 c0 38 -4 50 -15 50 -12 0 -15 -14 -15 -70z"/>
<path d="M2109 1765 c0 -3 -1 -20 -2 -37 l-1 -33 210 0 209 0 0 35 0 35 -207
3 c-115 1 -208 0 -209 -3z"/>
<path d="M8600 1716 c0 -17 7 -20 133 -43 110 -19 110 -19 -45 -50 -70 -13
-88 -20 -88 -33 0 -14 22 -22 115 -40 63 -12 115 -24 115 -25 0 -1 -50 -10
-111 -20 -72 -12 -113 -23 -116 -32 -3 -8 -3 -16 -1 -18 3 -3 67 8 144 23 197
40 189 62 -34 98 -24 4 -40 10 -35 14 4 3 52 15 107 25 87 17 121 33 104 51
-5 4 -264 63 -280 64 -5 0 -8 -6 -8 -14z"/>
<path d="M8065 1695 c-62 -22 -95 -65 -95 -125 0 -40 5 -55 30 -83 37 -43 86
-57 191 -57 103 0 150 12 192 50 29 25 32 34 32 83 0 72 -24 106 -91 129 -61
21 -203 23 -259 3z m245 -78 c29 -10 36 -17 38 -45 5 -49 -40 -65 -174 -60
-90 3 -106 6 -125 24 -28 28 -18 61 24 79 40 18 189 18 237 2z"/>
<path d="M2343 1630 c-12 -5 -26 -17 -31 -26 -9 -16 -12 -16 -37 4 -38 30 -96
29 -132 -2 -26 -23 -28 -31 -33 -116 -3 -59 -1 -94 5 -97 6 -2 100 -2 210 -1
l200 3 3 35 c2 19 1 60 -3 89 -6 44 -14 62 -40 88 -28 28 -40 33 -76 32 -24 0
-54 -4 -66 -9z m115 -88 c7 -9 12 -30 10 -47 -3 -30 -4 -30 -70 -33 l-68 -3 0
34 c0 35 15 61 40 70 25 10 74 -2 88 -21z m-207 8 c14 -8 19 -21 19 -50 l0
-40 -50 0 -50 0 0 40 c0 53 35 74 81 50z"/>
<path d="M7270 1615 l0 -25 223 2 c222 3 222 3 225 26 l3 22 -225 0 -226 0 0
-25z"/>
<path d="M2710 1520 l0 -30 230 0 230 0 0 30 0 30 -230 0 -230 0 0 -30z"/>
<path d="M7277 1504 c-4 -4 -7 -16 -7 -26 0 -17 12 -18 178 -19 l177 0 -177
-71 c-172 -69 -178 -73 -178 -100 l0 -28 225 0 c218 0 225 1 225 20 0 19 -7
20 -187 21 l-188 0 185 73 c180 72 185 74 185 102 l0 29 -216 3 c-118 1 -218
-1 -222 -4z"/>
<path d="M2930 1381 l-215 -57 -3 -35 -3 -36 225 -57 c124 -31 228 -56 231
-56 3 0 5 11 5 25 0 20 -7 26 -42 35 -114 28 -103 19 -106 86 l-3 61 38 11
c21 6 55 14 76 17 33 6 37 11 37 36 0 17 -5 29 -12 28 -7 0 -110 -26 -228 -58z
m50 -91 c0 -27 -3 -50 -7 -50 -5 0 -55 10 -112 22 l-105 22 105 27 c57 15 107
28 112 28 4 1 7 -21 7 -49z"/>
<path d="M3590 1431 c-152 -18 -222 -83 -222 -206 0 -123 65 -185 222 -207 60
-9 102 -9 169 -1 166 21 231 80 231 209 0 134 -78 195 -265 207 -38 3 -99 2
-135 -2z m249 -132 c39 -15 61 -39 61 -66 0 -65 -48 -91 -183 -99 -171 -11
-261 22 -255 95 4 44 39 70 109 81 64 10 230 3 268 -11z"/>
<path d="M2302 1302 c-106 -26 -193 -50 -193 -54 1 -5 1 -27 1 -50 l0 -43 198
-44 c108 -24 202 -44 207 -45 6 -1 10 15 10 34 0 34 -2 35 -50 45 l-50 11 0
49 0 50 50 10 c48 11 50 12 53 48 3 30 0 37 -15 36 -10 0 -105 -22 -211 -47z
m48 -97 c0 -32 -2 -35 -22 -30 -13 3 -52 11 -88 18 l-65 13 80 16 c44 9 83 16
88 17 4 1 7 -15 7 -34z"/>
<path d="M10280 1297 c-44 -15 -80 -68 -80 -117 0 -53 35 -97 110 -139 36 -20
72 -49 80 -64 13 -24 13 -30 0 -54 -27 -49 -90 -41 -111 14 -7 19 -16 23 -49
23 -35 0 -40 -3 -40 -24 0 -39 42 -90 85 -104 113 -38 224 37 211 142 -6 54
-32 86 -98 121 -80 43 -100 63 -96 98 6 59 77 63 96 7 9 -26 16 -30 46 -30 19
0 37 4 40 9 11 17 -19 84 -44 102 -33 24 -106 32 -150 16z"/>
<path d="M11206 1300 c-63 -19 -101 -84 -112 -191 -10 -100 11 -204 50 -246
41 -45 99 -55 151 -25 28 17 35 18 35 7 0 -10 11 -15 35 -15 l35 0 0 130 0
130 -75 0 -75 0 0 -35 c0 -32 2 -35 30 -35 29 0 30 -2 30 -45 0 -81 -60 -111
-104 -52 -18 24 -20 42 -20 135 0 116 15 165 54 177 27 9 70 -19 70 -45 0 -17
7 -20 46 -20 l46 0 -8 32 c-10 49 -31 75 -75 92 -43 17 -69 19 -113 6z"/>
<path d="M8021 1088 c-28 -117 -54 -223 -57 -235 -6 -21 -3 -23 39 -23 l44 0
12 60 12 61 57 -3 c48 -3 57 -6 60 -23 2 -11 8 -37 13 -57 10 -37 11 -38 55
-38 33 0 45 4 41 13 -2 6 -28 112 -57 235 l-54 222 -57 0 -57 0 -51 -212z
m128 32 c7 -36 14 -73 17 -82 5 -15 -1 -18 -35 -18 -24 0 -41 5 -41 11 0 33
35 177 41 166 3 -6 12 -41 18 -77z"/>
<path d="M8340 1065 l0 -237 99 4 c110 3 139 16 174 75 38 66 38 270 -1 322
-41 55 -67 66 -173 69 l-99 4 0 -237z m165 159 c31 -12 45 -59 45 -153 0 -129
-21 -171 -86 -171 l-34 0 0 165 0 165 29 0 c16 0 37 -3 46 -6z"/>
<path d="M8670 1297 c0 -5 108 -425 116 -450 5 -15 15 -17 57 -15 l51 3 58
220 c31 121 58 226 58 233 0 8 -15 12 -43 12 l-43 0 -40 -180 c-23 -107 -41
-173 -45 -163 -4 10 -22 90 -40 178 l-34 160 -48 3 c-26 2 -47 1 -47 -1z"/>
<path d="M9060 1065 l0 -235 125 0 c93 0 125 3 125 13 0 6 3 22 6 34 6 22 3
22 -82 25 l-89 3 0 65 0 65 78 3 77 3 0 34 0 34 -77 3 -78 3 0 55 0 55 83 3
82 3 0 34 0 35 -125 0 -125 0 0 -235z"/>
<path d="M9370 1065 l0 -235 45 0 45 0 0 100 0 100 39 0 c54 0 65 -18 71 -114
l5 -81 44 -3 44 -3 -6 92 c-4 69 -11 99 -25 119 -19 26 -19 26 4 53 18 21 24
40 24 75 0 102 -44 132 -192 132 l-98 0 0 -235z m191 149 c19 -23 15 -85 -7
-101 -10 -7 -35 -13 -56 -13 l-38 0 0 65 0 65 44 0 c28 0 48 -6 57 -16z"/>
<path d="M9700 1265 l0 -35 50 0 50 0 0 -200 0 -200 45 0 45 0 0 200 0 200 50
0 50 0 0 35 0 35 -145 0 -145 0 0 -35z"/>
<path d="M10040 1065 l0 -235 45 0 45 0 0 235 0 235 -45 0 -45 0 0 -235z"/>
<path d="M10550 1065 l0 -235 45 0 45 0 0 235 0 235 -45 0 -45 0 0 -235z"/>
<path d="M10720 1066 l0 -236 40 0 40 0 2 165 3 165 61 -163 61 -162 46 -3 47
-3 0 235 0 236 -35 0 -34 0 -3 -157 -3 -158 -60 155 -61 155 -52 3 -52 3 0
-235z"/>
<path d="M7488 1152 l-218 -54 0 -33 c0 -26 5 -34 23 -37 12 -3 108 -26 214
-52 105 -25 197 -46 203 -46 6 0 10 10 8 22 -2 19 -14 25 -73 39 l-70 16 0 58
0 58 70 16 c52 12 71 21 73 35 2 10 0 22 -5 26 -4 4 -106 -18 -225 -48z m42
-87 c0 -25 -4 -45 -9 -45 -5 0 -51 10 -103 22 l-93 22 85 21 c123 32 120 33
120 -20z"/>
<path d="M2783 1083 c-12 -2 -34 -18 -48 -34 -23 -28 -25 -39 -25 -120 l0 -89
230 0 230 0 0 25 0 25 -105 0 -105 0 0 48 c0 77 13 86 119 90 l91 4 0 30 c0
27 -3 30 -22 24 -13 -3 -53 -6 -90 -6 -56 0 -71 -4 -97 -25 -24 -21 -31 -23
-38 -11 -19 35 -78 51 -140 39z m105 -69 c18 -12 22 -25 22 -70 l0 -54 -80 0
-80 0 0 50 c0 37 5 55 20 70 24 24 86 27 118 4z"/>
<path d="M7344 868 c-99 -26 -107 -169 -11 -216 113 -55 343 -29 375 44 18 38
14 88 -8 111 -20 22 -20 22 1 28 11 4 19 13 17 22 -2 12 -25 15 -123 15 l-120
0 -3 -61 c-3 -55 -1 -61 17 -61 16 0 20 8 23 38 3 37 3 37 48 36 67 -1 99 -12
112 -39 17 -38 2 -74 -40 -92 -52 -23 -223 -23 -274 -1 -63 28 -66 104 -5 129
27 11 33 18 28 35 -5 17 -10 19 -37 12z"/>
<path d="M2710 655 c0 -128 1 -135 20 -135 17 0 20 7 20 50 l0 50 210 0 210 0
0 30 0 30 -210 0 -210 0 0 55 c0 48 -2 55 -20 55 -19 0 -20 -7 -20 -135z"/>
<path d="M7303 536 c-26 -23 -28 -30 -32 -115 l-3 -91 223 2 c224 3 224 3 227
26 3 22 2 22 -102 22 l-106 0 0 43 c0 70 14 81 117 87 83 5 88 6 91 28 4 24 3
24 -92 20 -81 -2 -99 -6 -117 -24 l-21 -21 -23 23 c-35 34 -122 34 -162 0z
m152 -50 c10 -15 15 -40 13 -63 l-3 -38 -77 -3 -78 -3 0 43 c0 66 21 88 80 88
41 0 52 -4 65 -24z"/>
<path d="M7357 246 c-80 -30 -112 -91 -83 -160 21 -50 79 -77 181 -83 112 -7
190 10 232 52 56 56 40 145 -34 181 -51 24 -240 31 -296 10z m256 -47 c73 -20
87 -93 25 -125 -42 -22 -183 -30 -245 -15 -62 16 -83 36 -83 78 0 30 5 36 43
53 48 22 195 27 260 9z"/>
</g>
</svg>
